<svg id="圖層_1" data-name="圖層 1" xmlns="http://www.w3.org/2000/svg" viewBox="0 0 1920 1080"><defs><style>.cls-1{fill:none;}.cls-2,.cls-22{font-size:21px;}.cls-19,.cls-2,.cls-20,.cls-23{font-family:NotoSansCJKtc-DemiLight-B5pc-H, Noto Sans CJK TC;}.cls-19,.cls-2,.cls-9{letter-spacing:0.2em;}.cls-3{letter-spacing:0.23em;}.cls-4{letter-spacing:-0.16em;}.cls-5{letter-spacing:-0.12em;}.cls-6{letter-spacing:0.11em;}.cls-23,.cls-7{letter-spacing:-0.05em;}.cls-8{letter-spacing:1.52em;}.cls-10{letter-spacing:0.3em;}.cls-11{letter-spacing:0.19em;}.cls-12{letter-spacing:-0.17em;}.cls-13{letter-spacing:-0.11em;}.cls-14{letter-spacing:0.14em;}.cls-15{letter-spacing:0.16em;}.cls-16{letter-spacing:-0.21em;}.cls-17{letter-spacing:-0.05em;}.cls-18,.cls-22{font-family:AdobeMingStd-Light-B5pc-H, Adobe Ming Std;letter-spacing:1.49em;}.cls-20{font-size:36px;letter-spacing:0.2em;}.cls-21{fill:#333;}</style></defs><title>B</title><rect class="cls-1" x="0.72" width="1921" height="1081"/><text class="cls-2" transform="translate(229.89 190.03) scale(0.98 1)">1.<tspan class="cls-3" x="25.6" y="0">	</tspan><tspan class="cls-4" x="35.13" y="0">Ｂ</tspan><tspan class="cls-5" x="52.7" y="0">、</tspan><tspan class="cls-6" x="71.16" y="0">Ｄ</tspan><tspan x="94.47" y="0">區汽車營</tspan><tspan class="cls-7" x="195.27" y="0">位：</tspan><tspan class="cls-8"><tspan x="0" y="48">	</tspan><tspan class="cls-9" x="36.56" y="48">850元 / 日</tspan><tspan x="0" y="96">	</tspan><tspan class="cls-9" x="36.56" y="96">木棧板</tspan><tspan x="0" y="144">	</tspan><tspan class="cls-9" x="36.56" y="144">有供電</tspan></tspan><tspan x="0" y="192">2.</tspan><tspan class="cls-10" x="25.6" y="192">	</tspan><tspan x="36.56" y="192">C區雙屋汽車營</tspan><tspan class="cls-7" x="205.27" y="192">位：</tspan><tspan class="cls-8"><tspan x="0" y="240">	</tspan><tspan class="cls-9" x="36.56" y="240" xml:space="preserve">1200元 / 日(  4人 ) </tspan><tspan x="0" y="288">	</tspan><tspan class="cls-9" x="36.56" y="288">1650元 / 日( 5-8人 ) </tspan><tspan x="0" y="336">	</tspan><tspan class="cls-9" x="36.56" y="336">木棧板</tspan><tspan x="0" y="384">	</tspan><tspan class="cls-9" x="36.56" y="384">有供電</tspan></tspan><tspan x="0" y="432">3.</tspan><tspan class="cls-11" x="25.6" y="432">	</tspan><tspan class="cls-12" x="34.31" y="432">Ａ</tspan><tspan class="cls-13" x="51.8" y="432">、</tspan><tspan class="cls-14" x="70.49" y="432">Ｈ</tspan><tspan x="94.43" y="432">區木架式營位(狩獵屋</tspan><tspan class="cls-7" x="332.38" y="432">)：</tspan><tspan class="cls-8"><tspan x="0" y="480">	</tspan><tspan class="cls-9" x="36.56" y="480">3000-4800元 / 日( 6-12人 ) </tspan><tspan x="0" y="528">	</tspan><tspan class="cls-9" x="36.56" y="528">部分有提供衛浴設施</tspan><tspan x="0" y="576">	</tspan><tspan class="cls-9" x="36.56" y="576">有冷氣設備</tspan><tspan x="0" y="624">	</tspan><tspan class="cls-9" x="36.56" y="624">附毛毯和睡墊</tspan></tspan><tspan x="0" y="672">4.</tspan><tspan class="cls-15" x="25.6" y="672">	</tspan><tspan class="cls-16" x="33.7" y="672">Ｆ</tspan><tspan class="cls-17" x="50.21" y="672">、</tspan><tspan x="70.16" y="672">G區木板營</tspan><tspan class="cls-7" x="189.52" y="672">位：</tspan><tspan class="cls-8"><tspan x="0" y="720">	</tspan><tspan class="cls-9" x="36.56" y="720">650元 / 日</tspan></tspan><tspan class="cls-18"><tspan x="0" y="768">	</tspan><tspan class="cls-19" x="36.56" y="768">木棧板</tspan><tspan x="0" y="816">	</tspan><tspan class="cls-19" x="36.56" y="816">無供電</tspan></tspan></text><text class="cls-20" transform="translate(229.89 106.53) scale(0.98 1)"><tspan xml:space="preserve">園內設施  </tspan></text><circle class="cls-21" cx="237" cy="232" r="6"/><circle class="cls-21" cx="237" cy="281" r="6"/><circle class="cls-21" cx="237" cy="330" r="6"/><circle class="cls-21" cx="237" cy="518" r="6"/><circle class="cls-21" cx="237" cy="425" r="6"/><circle class="cls-21" cx="237" cy="473" r="6"/><circle class="cls-21" cx="237" cy="568" r="6"/><circle class="cls-21" cx="237" cy="758" r="6"/><circle class="cls-21" cx="237" cy="663" r="6"/><circle class="cls-21" cx="237" cy="711" r="6"/><circle class="cls-21" cx="237" cy="807" r="6"/><circle class="cls-21" cx="237" cy="995" r="6"/><circle class="cls-21" cx="237" cy="902" r="6"/><circle class="cls-21" cx="237" cy="950" r="6"/><text class="cls-2" transform="translate(763.89 190.03) scale(0.98 1)">1.<tspan class="cls-10" x="25.6" y="0">	</tspan><tspan x="36.56" y="0">跳塔</tspan><tspan class="cls-18"><tspan x="0" y="48">	</tspan><tspan class="cls-19" x="36.56" y="48">6000元 / 1小時(不限人數)</tspan><tspan x="0" y="96">	</tspan><tspan class="cls-19" x="36.56" y="96">年齡需7歲以上</tspan><tspan x="0" y="144">	</tspan><tspan class="cls-19" x="36.56" y="144">採事先預約</tspan></tspan><tspan x="0" y="192">2.</tspan><tspan class="cls-10" x="25.6" y="192">	</tspan><tspan x="36.56" y="192">漆彈遊戲</tspan><tspan class="cls-18"><tspan x="0" y="240">	</tspan><tspan class="cls-19" x="36.56" y="240">449元 / 人(需15人以上)</tspan><tspan x="0" y="288">	</tspan><tspan class="cls-19" x="36.56" y="288">年齡需13歲以上</tspan><tspan x="0" y="336">	</tspan><tspan class="cls-19" x="36.56" y="336">採事先預約</tspan></tspan><tspan x="0" y="384">3.</tspan><tspan class="cls-10" x="25.6" y="384">	</tspan><tspan x="36.56" y="384">營火烤肉</tspan><tspan class="cls-18"><tspan x="0" y="432">	</tspan><tspan class="cls-19" x="36.56" y="432">清潔費500元</tspan><tspan x="0" y="480">	</tspan><tspan class="cls-19" x="36.56" y="480">使用瓦斯烤具</tspan><tspan x="0" y="528">	</tspan><tspan class="cls-19" x="36.56" y="528">烤肉與炊事材料販售</tspan></tspan><tspan x="0" y="576">4.</tspan><tspan class="cls-10" x="25.6" y="576">	</tspan><tspan x="36.56" y="576">游泳池</tspan><tspan class="cls-18"><tspan x="0" y="624">	</tspan><tspan class="cls-19" x="36.56" y="624">全票60元　/　3小時</tspan><tspan x="0" y="672">	</tspan><tspan class="cls-19" x="36.56" y="672">半票30元　/　3小時</tspan><tspan x="0" y="720">	</tspan><tspan class="cls-19" x="36.56" y="720">有季節性</tspan></tspan><tspan x="0" y="768">5.</tspan><tspan class="cls-10" x="25.6" y="768">	</tspan><tspan x="36.56" y="768">益智型木遊憩區</tspan><tspan class="cls-18"><tspan x="0" y="816">	</tspan><tspan class="cls-19" x="36.56" y="816">100元 / 人(需10人以上)</tspan></tspan></text><text class="cls-20" transform="translate(763.89 106.53) scale(0.98 1)">活動設施</text><circle class="cls-21" cx="771" cy="232" r="6"/><circle class="cls-21" cx="771" cy="281" r="6"/><circle class="cls-21" cx="771" cy="330" r="6"/><circle class="cls-21" cx="771" cy="518" r="6"/><circle class="cls-21" cx="771" cy="425" r="6"/><circle class="cls-21" cx="771" cy="473" r="6"/><circle class="cls-21" cx="771" cy="615" r="6"/><circle class="cls-21" cx="771" cy="663" r="6"/><circle class="cls-21" cx="771" cy="711" r="6"/><circle class="cls-21" cx="771" cy="807" r="6"/><circle class="cls-21" cx="771" cy="995" r="6"/><circle class="cls-21" cx="771" cy="902" r="6"/><text class="cls-22" transform="translate(1303.17 190.03) scale(0.98 1)">	<tspan class="cls-19" x="36.56" y="0">有年齡限制</tspan><tspan x="0" y="48">	</tspan><tspan class="cls-19" x="36.56" y="48">採事先預約</tspan><tspan class="cls-19"><tspan x="0" y="96">6.</tspan><tspan class="cls-10" x="25.6" y="96">	</tspan><tspan x="36.56" y="96">獨木舟</tspan></tspan><tspan x="0" y="144">	</tspan><tspan class="cls-19" x="36.56" y="144">雙溪河水流平</tspan><tspan class="cls-23" x="187.76" y="144">穩，</tspan><tspan class="cls-19" x="227.66" y="144">無季節性</tspan><tspan x="0" y="192">	</tspan><tspan class="cls-19" x="36.56" y="192">設備銷售與課程指導</tspan><tspan x="0" y="240">	</tspan><tspan class="cls-19" x="36.56" y="240">費用1000-2700元( 2-5小時) </tspan><tspan x="0" y="288">	</tspan><tspan class="cls-19" x="36.56" y="288">採線上報名制</tspan></text><circle class="cls-21" cx="1310.28" cy="182.7" r="6"/><circle class="cls-21" cx="1310.28" cy="231.7" r="6"/><circle class="cls-21" cx="1310.28" cy="468.7" r="6"/><circle class="cls-21" cx="1310.28" cy="375.7" r="6"/><circle class="cls-21" cx="1310.28" cy="423.7" r="6"/></svg>