<svg id="圖層_1" data-name="圖層 1" xmlns="http://www.w3.org/2000/svg" viewBox="0 0 1920 1080"><defs><style>.cls-1{fill:none;}.cls-2{font-size:21px;}.cls-15,.cls-2,.cls-21,.cls-22,.cls-23,.cls-24,.cls-25,.cls-26,.cls-27{font-family:NotoSansCJKtc-DemiLight-B5pc-H, Noto Sans CJK TC;}.cls-2,.cls-21,.cls-6{letter-spacing:0.2em;}.cls-3{letter-spacing:0.3em;}.cls-22,.cls-4{letter-spacing:-0.05em;}.cls-5{letter-spacing:1.52em;}.cls-7{letter-spacing:0.08em;}.cls-8{letter-spacing:-0.04em;}.cls-9{letter-spacing:-0.05em;}.cls-10{letter-spacing:0.09em;}.cls-11{letter-spacing:0.08em;}.cls-12{letter-spacing:-0.04em;}.cls-13{letter-spacing:0.08em;}.cls-14{letter-spacing:0.2em;}.cls-15{font-size:36px;letter-spacing:0.2em;}.cls-16{fill:#333;}.cls-17{letter-spacing:0.18em;}.cls-18{letter-spacing:0.2em;}.cls-19{letter-spacing:0.23em;}.cls-20{font-family:AdobeMingStd-Light-B5pc-H, Adobe Ming Std;letter-spacing:1.49em;}.cls-23,.cls-30{letter-spacing:-0.26em;}.cls-24,.cls-31{letter-spacing:0.16em;}.cls-25,.cls-32{letter-spacing:0.16em;}.cls-26{letter-spacing:0.58em;}.cls-27{letter-spacing:0.68em;}.cls-28{letter-spacing:1.38em;}.cls-29{letter-spacing:0.88em;}.cls-33{letter-spacing:0.2em;}.cls-34{letter-spacing:1.11em;}</style></defs><title>B</title><rect class="cls-1" x="-0.72" y="-0.47" width="1921" height="1081"/><text class="cls-2" transform="translate(228.45 189.56) scale(0.98 1)">1.<tspan class="cls-3" x="25.6" y="0">	</tspan><tspan x="36.56" y="0">入口處停車</tspan><tspan class="cls-4" x="162.56" y="0">場：</tspan><tspan x="202.46" y="0">停車數不限</tspan><tspan class="cls-5"><tspan x="0" y="48">	</tspan><tspan class="cls-6" x="36.56" y="48">汽車營</tspan><tspan class="cls-4" x="112.16" y="48">位：</tspan><tspan class="cls-6" x="152.06" y="48">停車</tspan><tspan class="cls-7" x="202.46" y="48">數</tspan><tspan class="cls-8" x="225.2" y="48">１</tspan><tspan class="cls-9" x="245.3" y="48">０</tspan><tspan class="cls-10" x="265.25" y="48">７</tspan><tspan class="cls-6" x="288.14" y="48">位</tspan><tspan x="0" y="96">	</tspan><tspan class="cls-6" x="36.56" y="96">雙屋汽車營</tspan><tspan class="cls-4" x="162.56" y="96">位：</tspan><tspan class="cls-6" x="202.46" y="96">停車</tspan><tspan class="cls-11" x="252.86" y="96">數</tspan><tspan class="cls-12" x="275.54" y="96">２</tspan><tspan class="cls-13" x="295.72" y="96">８</tspan><tspan class="cls-14" x="318.38" y="96">位</tspan></tspan></text><text class="cls-15" transform="translate(228.45 106.07) scale(0.98 1)">園區內停車空間</text><circle class="cls-16" cx="235.55" cy="231.53" r="6"/><circle class="cls-16" cx="235.55" cy="280.53" r="6"/><text class="cls-2" transform="translate(762.44 189.56) scale(0.98 1)">1.<tspan class="cls-3" x="25.6" y="0">	</tspan><tspan x="36.56" y="0" xml:space="preserve">2017  Dis</tspan><tspan class="cls-17" x="159.55" y="0">c</tspan><tspan class="cls-18" x="173.9" y="0">ov</tspan><tspan x="205.5" y="0">e</tspan><tspan class="cls-19" x="221.23" y="0">r</tspan><tspan x="234.04" y="0" xml:space="preserve">y  硬派祭</tspan><tspan class="cls-20"><tspan x="0" y="48">	</tspan><tspan class="cls-21" x="36.56" y="48">日</tspan><tspan class="cls-22" x="61.76" y="48">期：</tspan><tspan class="cls-21" x="101.66" y="48">2017/11/</tspan><tspan class="cls-22" x="220.89" y="48">4、</tspan><tspan class="cls-23" x="251.32" y="48">5</tspan><tspan class="cls-24" x="257.31" y="48">（</tspan><tspan class="cls-21" x="281.75" y="48">兩</tspan><tspan class="cls-25" x="306.95" y="48">天</tspan><tspan class="cls-23" x="331.4" y="48">）</tspan><tspan x="0" y="96">	</tspan><tspan class="cls-21" x="36.56" y="96">費</tspan><tspan class="cls-22" x="61.76" y="96">用：</tspan><tspan class="cls-21" x="101.66" y="96">11/4(六)為入住旅客專屬</tspan><tspan class="cls-26" x="385.18" y="96">	</tspan></tspan><tspan class="cls-5"><tspan x="0" y="144">	</tspan><tspan class="cls-4" x="36.56" y="144">場、</tspan><tspan class="cls-6" x="76.46" y="144">11/5(日)所有人免費入場</tspan></tspan><tspan class="cls-20"><tspan x="0" y="192">	</tspan><tspan class="cls-21" x="36.56" y="192">內</tspan><tspan class="cls-22" x="61.76" y="192">容：</tspan><tspan class="cls-21" x="101.66" y="192">露營市</tspan><tspan class="cls-22" x="177.26" y="192">集、</tspan><tspan class="cls-21" x="217.16" y="192">夜間生態導</tspan><tspan class="cls-22" x="343.16" y="192">覽、</tspan><tspan class="cls-27" x="383.06" y="192">	</tspan></tspan><tspan class="cls-5"><tspan x="0" y="240">	</tspan><tspan class="cls-6" x="36.56" y="240">老車新狂</tspan><tspan class="cls-4" x="137.36" y="240">吼、</tspan><tspan class="cls-6" x="177.26" y="240">野炊料理盛</tspan><tspan class="cls-4" x="303.26" y="240">宴、</tspan><tspan class="cls-6" x="343.16" y="240">音</tspan><tspan class="cls-28" x="368.36" y="240">	</tspan><tspan x="0" y="288">	</tspan><tspan class="cls-6" x="36.56" y="288">樂盛</tspan><tspan class="cls-4" x="86.96" y="288">典、</tspan><tspan class="cls-6" x="126.86" y="288">體驗荒野訓練</tspan><tspan class="cls-4" x="278.06" y="288">營、</tspan><tspan class="cls-6" x="317.96" y="288">野練</tspan><tspan class="cls-28" x="368.36" y="288">	</tspan><tspan x="0" y="336">	</tspan><tspan class="cls-6" x="36.56" y="336">格鬥</tspan><tspan class="cls-4" x="86.96" y="336">房、</tspan><tspan class="cls-6" x="126.86" y="336">硬漢市集</tspan><tspan class="cls-4" x="227.66" y="336">等。</tspan></tspan><tspan x="0" y="384">2.</tspan><tspan class="cls-3" x="25.6" y="384">	</tspan><tspan x="36.56" y="384" xml:space="preserve">2018  Dis</tspan><tspan class="cls-17" x="159.55" y="384">c</tspan><tspan class="cls-18" x="173.9" y="384">ov</tspan><tspan x="205.5" y="384">e</tspan><tspan class="cls-19" x="221.23" y="384">r</tspan><tspan x="234.04" y="384" xml:space="preserve">y  硬派祭</tspan><tspan class="cls-29" x="342.36" y="384">	</tspan><tspan class="cls-5"><tspan x="0" y="432">	</tspan><tspan class="cls-6" x="36.56" y="432">日</tspan><tspan class="cls-4" x="61.76" y="432">期：</tspan><tspan class="cls-6" x="101.66" y="432">2018/12/</tspan><tspan class="cls-4" x="220.89" y="432">1、</tspan><tspan class="cls-30" x="251.32" y="432">2</tspan><tspan class="cls-31" x="257.31" y="432">（</tspan><tspan class="cls-6" x="281.75" y="432">兩</tspan><tspan class="cls-32" x="306.95" y="432">天</tspan><tspan class="cls-30" x="331.4" y="432">）</tspan></tspan><tspan class="cls-20"><tspan x="0" y="480">	</tspan><tspan class="cls-21" x="36.56" y="480">費</tspan><tspan class="cls-22" x="61.76" y="480">用：</tspan><tspan class="cls-21" x="101.66" y="480">免費入場</tspan><tspan x="0" y="528">	</tspan><tspan class="cls-21" x="36.56" y="528">內</tspan><tspan class="cls-22" x="61.76" y="528">容：</tspan><tspan class="cls-21" x="101.66" y="528">硬派市</tspan><tspan class="cls-22" x="177.26" y="528">集、</tspan><tspan class="cls-21" x="217.16" y="528">硬派野</tspan><tspan class="cls-22" x="292.76" y="528">台、</tspan><tspan class="cls-21" x="332.66" y="528">老車</tspan><tspan class="cls-27" x="383.06" y="528">	</tspan></tspan><tspan class="cls-5"><tspan x="0" y="576">	</tspan><tspan class="cls-6" x="36.56" y="576">新狂</tspan><tspan class="cls-4" x="86.96" y="576">吼、</tspan><tspan class="cls-6" x="126.86" y="576">野炊盛</tspan><tspan class="cls-4" x="202.46" y="576">宴、</tspan><tspan class="cls-6" x="242.36" y="576">Dis</tspan><tspan class="cls-17" x="284.67" y="576">c</tspan><tspan class="cls-33" x="299.01" y="576">ov</tspan><tspan class="cls-6" x="330.62" y="576">e</tspan><tspan class="cls-19" x="346.35" y="576">r</tspan><tspan class="cls-6" x="359.16" y="576">y</tspan><tspan class="cls-34" x="374.11" y="576">	</tspan><tspan x="0" y="624">	</tspan><tspan class="cls-6" x="36.56" y="624">自然體驗攤</tspan><tspan class="cls-4" x="162.56" y="624">位、</tspan><tspan class="cls-6" x="202.46" y="624">自造者基</tspan><tspan class="cls-4" x="303.26" y="624">地、</tspan><tspan class="cls-6" x="343.16" y="624">跳</tspan><tspan class="cls-28" x="368.36" y="624">	</tspan><tspan x="0" y="672">	</tspan><tspan class="cls-6" x="36.56" y="672">塔體驗</tspan><tspan class="cls-4" x="112.16" y="672">等。</tspan></tspan></text><text class="cls-15" transform="translate(762.45 106.07) scale(0.98 1)">慶典活動</text><circle class="cls-16" cx="769.55" cy="231.53" r="6"/><circle class="cls-16" cx="769.55" cy="280.53" r="6"/><circle class="cls-16" cx="769.55" cy="375.53" r="6"/><circle class="cls-16" cx="769.55" cy="614.53" r="6"/><circle class="cls-16" cx="769.55" cy="662.53" r="6"/><circle class="cls-16" cx="769.55" cy="710.53" r="6"/></svg>