<svg id="圖層_1" data-name="圖層 1" xmlns="http://www.w3.org/2000/svg" viewBox="0 0 1920 1080"><defs><style>.cls-1{font-size:72px;fill:#333;font-family:NotoSansCJKtc-Bold-B5pc-H, Noto Sans CJK TC;letter-spacing:-0.05em;}.cls-2{letter-spacing:-0.05em;}.cls-3{letter-spacing:-0.1em;}.cls-4{letter-spacing:-0.17em;}.cls-5{letter-spacing:-0.15em;}.cls-6{letter-spacing:-0.12em;}.cls-7{letter-spacing:0.02em;}.cls-8{letter-spacing:-0.04em;}.cls-9{letter-spacing:-0.17em;}.cls-10{letter-spacing:-0.11em;}.cls-11{letter-spacing:-0.12em;}.cls-12{letter-spacing:-0.03em;}.cls-13{font-size:21px;font-family:NotoSansCJKtc-DemiLight-B5pc-H, Noto Sans CJK TC;}.cls-13,.cls-56{letter-spacing:0.2em;}.cls-14{letter-spacing:-0.26em;}.cls-15{letter-spacing:0.16em;}.cls-16{letter-spacing:-0.05em;}.cls-17{letter-spacing:0.18em;}.cls-18{letter-spacing:0.23em;}.cls-19{letter-spacing:0.2em;}.cls-20{letter-spacing:0.16em;}.cls-21{letter-spacing:0.19em;}.cls-22{letter-spacing:0.19em;}.cls-23{letter-spacing:0.15em;}.cls-24{letter-spacing:0.2em;}.cls-25{letter-spacing:0.19em;}.cls-26{letter-spacing:0.21em;}.cls-27{letter-spacing:0.18em;}.cls-28{letter-spacing:0.2em;}.cls-29{letter-spacing:0.18em;}.cls-30{letter-spacing:0.17em;}.cls-31{letter-spacing:0.18em;}.cls-32{letter-spacing:0.16em;}.cls-33{letter-spacing:-0.51em;}.cls-34{letter-spacing:0.21em;}.cls-35{letter-spacing:0.19em;}.cls-36{letter-spacing:0.18em;}.cls-37{letter-spacing:0.21em;}.cls-38{letter-spacing:0.23em;}.cls-39{letter-spacing:-0.51em;}.cls-40{letter-spacing:-0.05em;}.cls-41{letter-spacing:-0.05em;}.cls-42{letter-spacing:-0.05em;}.cls-43{letter-spacing:0.18em;}.cls-44{letter-spacing:0.17em;}.cls-45{letter-spacing:0.19em;}.cls-46{letter-spacing:0.19em;}.cls-47{letter-spacing:0.15em;}.cls-48{letter-spacing:0.19em;}.cls-49{letter-spacing:0.21em;}.cls-50{letter-spacing:0.18em;}.cls-51{letter-spacing:0.19em;}.cls-52{letter-spacing:0.21em;}.cls-53{letter-spacing:0.18em;}.cls-54{letter-spacing:0.19em;}.cls-55{letter-spacing:0.19em;}.cls-57{letter-spacing:0.18em;}.cls-58{letter-spacing:0.18em;}.cls-59{letter-spacing:0.17em;}.cls-60{letter-spacing:0.15em;}.cls-61{letter-spacing:0.18em;}.cls-62{letter-spacing:0.21em;}.cls-63{letter-spacing:0.19em;}.cls-64{letter-spacing:0.19em;}.cls-65{letter-spacing:0.18em;}.cls-66{letter-spacing:0.18em;}.cls-67{letter-spacing:0.23em;}.cls-68{letter-spacing:0.18em;}.cls-69{letter-spacing:0.15em;}.cls-70{letter-spacing:0.16em;}.cls-71{letter-spacing:0.19em;}.cls-72{letter-spacing:0.19em;}.cls-73{letter-spacing:0.16em;}.cls-74{letter-spacing:-0.51em;}.cls-75{letter-spacing:0.15em;}.cls-76{letter-spacing:0.18em;}.cls-77{letter-spacing:0.21em;}.cls-78{letter-spacing:0.18em;}.cls-79{letter-spacing:0.26em;}.cls-80{letter-spacing:0.18em;}.cls-81{letter-spacing:0.2em;}.cls-82{letter-spacing:0.16em;}.cls-83{letter-spacing:0.21em;}.cls-84{letter-spacing:0.18em;}.cls-85{fill:none;}</style></defs><title>B</title><text class="cls-1" transform="translate(80.42 139.02) scale(0.98 1)">Ｃ<tspan class="cls-2" x="68.33" y="0">Ｈ</tspan><tspan class="cls-3" x="136.51" y="0">Ａ</tspan><tspan class="cls-4" x="201.53" y="0">Ｐ</tspan><tspan class="cls-5" x="261.51" y="0">Ｔ</tspan><tspan class="cls-6" x="322.35" y="0">Ｅ</tspan><tspan class="cls-7" x="385.56" y="0">Ｒ</tspan><tspan class="cls-8" x="459.29" y="0"> </tspan><tspan class="cls-9" x="472.9" y="0">Ｆ</tspan><tspan class="cls-10" x="532.59" y="0">Ｉ</tspan><tspan class="cls-11" x="596.96" y="0">Ｖ</tspan><tspan class="cls-12" x="660.1" y="0">Ｅ</tspan></text><text class="cls-13" transform="translate(88.01 224.78) scale(0.98 1)">科技產業資訊<tspan class="cls-14" x="151.2" y="0">室</tspan><tspan class="cls-15" x="166.66" y="0">（</tspan><tspan x="191.1" y="0">2019</tspan><tspan class="cls-16" x="254.02" y="0">)。</tspan><tspan x="279.87" y="0">全民露營熱 創造大商</tspan><tspan class="cls-16" x="515.55" y="0">機。</tspan><tspan x="555.45" y="0">h</tspan><tspan class="cls-17" x="572.29" y="0">t</tspan><tspan x="583.78" y="0">tps:/</tspan><tspan class="cls-18" x="649.07" y="0">/</tspan><tspan x="662.15" y="0">ikn</tspan><tspan class="cls-19" x="704.51" y="0">o</tspan><tspan class="cls-20" x="721.27" y="0">w</tspan><tspan x="741.26" y="0">.</tspan><tspan class="cls-17" x="751.13" y="0">s</tspan><tspan x="764.59" y="0">tpi.narl</tspan><tspan class="cls-21" x="868.43" y="0">.</tspan><tspan x="878.03" y="0">o</tspan><tspan class="cls-22" x="894.87" y="0">r</tspan><tspan x="906.8" y="0">g</tspan><tspan class="cls-23" x="922.7" y="0">.</tspan><tspan class="cls-24" x="931.56" y="0">t</tspan><tspan class="cls-25" x="943.51" y="0">w</tspan><tspan x="964.13" y="0">/po</tspan><tspan class="cls-17" x="1010.52" y="0">s</tspan><tspan class="cls-26" x="1023.98" y="0">t</tspan><tspan x="1036.2" y="0">/</tspan><tspan class="cls-22" x="1048.63" y="0">R</tspan><tspan class="cls-27" x="1065.77" y="0">e</tspan><tspan class="cls-28" x="1081.16" y="0">ad.as</tspan><tspan class="cls-29" x="1153.95" y="0">p</tspan><tspan class="cls-28" x="1170.68" y="0">x?</tspan><tspan class="cls-30" x="1199.1" y="0">P</tspan><tspan class="cls-24" x="1215.88" y="0">o</tspan><tspan class="cls-31" x="1232.72" y="0">s</tspan><tspan class="cls-28" x="1246.18" y="0">tID=15321</tspan><tspan x="0" y="48">宋宜</tspan><tspan class="cls-14" x="50.4" y="48">芳</tspan><tspan class="cls-32" x="65.86" y="48">（</tspan><tspan x="90.3" y="48">201</tspan><tspan class="cls-32" x="137.49" y="48">7</tspan><tspan class="cls-33" x="152.46" y="48">）</tspan><tspan class="cls-16" x="162.67" y="48">。</tspan><tspan x="182.62" y="48">全台露營人口200萬人 最愛的10大露營地</tspan><tspan class="cls-16" x="648.15" y="48">點。</tspan><tspan x="688.05" y="48">鉅亨</tspan><tspan class="cls-16" x="738.45" y="48">網。</tspan><tspan x="778.35" y="48">h</tspan><tspan class="cls-17" x="795.19" y="48">t</tspan><tspan x="806.68" y="48">tps://n</tspan><tspan class="cls-34" x="901.3" y="48">e</tspan><tspan class="cls-28" x="917.18" y="48">ws</tspan><tspan class="cls-35" x="951.91" y="48">.</tspan><tspan x="961.51" y="48">cn</tspan><tspan class="cls-19" x="993.24" y="48">y</tspan><tspan x="1008.11" y="48">es</tspan><tspan class="cls-35" x="1037.76" y="48">.</tspan><tspan class="cls-36" x="1047.36" y="48">c</tspan><tspan class="cls-24" x="1061.7" y="48">om/n</tspan><tspan class="cls-37" x="1131.38" y="48">e</tspan><tspan class="cls-24" x="1147.25" y="48">ws</tspan><tspan class="cls-38" x="1181.99" y="48">/</tspan><tspan class="cls-28" x="1195.07" y="48">id/3759062</tspan><tspan x="0" y="96">傅惠</tspan><tspan class="cls-16" x="50.4" y="96">蘭</tspan><tspan class="cls-33" x="70.35" y="96">，</tspan><tspan class="cls-32" x="80.56" y="96">（</tspan><tspan x="105" y="96">200</tspan><tspan class="cls-32" x="152.19" y="96">5</tspan><tspan class="cls-39" x="167.16" y="96">）</tspan><tspan class="cls-40" x="177.37" y="96">，</tspan><tspan x="197.32" y="96">露營動機的方法目的鏈結模式之研究─以龍門露營區家庭遊客為</tspan><tspan class="cls-40" x="902.92" y="96">例，</tspan><tspan x="942.82" y="96">碩士論</tspan><tspan class="cls-41" x="1018.42" y="96">文，</tspan><tspan class="cls-24" x="1058.32" y="96">世新大學觀光學</tspan><tspan class="cls-41" x="1234.72" y="96">系，</tspan><tspan class="cls-24" x="1274.62" y="96">台</tspan><tspan class="cls-41" x="1299.82" y="96">北。</tspan><tspan x="0" y="144">孫文</tspan><tspan class="cls-14" x="50.4" y="144">臨</tspan><tspan class="cls-32" x="65.86" y="144">（</tspan><tspan x="90.3" y="144">201</tspan><tspan class="cls-32" x="137.49" y="144">9</tspan><tspan class="cls-33" x="152.46" y="144">）</tspan><tspan class="cls-16" x="162.67" y="144">。</tspan><tspan x="182.62" y="144">農</tspan><tspan class="cls-16" x="207.82" y="144">牧、</tspan><tspan x="247.72" y="144">林地開放設露營場 內政</tspan><tspan class="cls-42" x="508.6" y="144">部：</tspan><tspan x="548.5" y="144">年底前完成修</tspan><tspan class="cls-16" x="699.7" y="144">法。</tspan><tspan x="739.6" y="144">台灣地球</tspan><tspan class="cls-16" x="840.4" y="144">日。</tspan><tspan class="cls-24" x="880.3" y="144">h</tspan><tspan class="cls-17" x="897.15" y="144">t</tspan><tspan class="cls-24" x="908.63" y="144">tps://ww</tspan><tspan class="cls-20" x="1027.97" y="144">w</tspan><tspan class="cls-21" x="1047.97" y="144">.</tspan><tspan class="cls-43" x="1057.56" y="144">e</tspan><tspan class="cls-24" x="1072.96" y="144">arthda</tspan><tspan class="cls-44" x="1162.9" y="144">y</tspan><tspan class="cls-45" x="1177.14" y="144">.</tspan><tspan class="cls-24" x="1186.73" y="144">o</tspan><tspan class="cls-46" x="1203.58" y="144">r</tspan><tspan class="cls-24" x="1215.51" y="144">g</tspan><tspan class="cls-47" x="1231.4" y="144">.</tspan><tspan class="cls-24" x="1240.27" y="144">t</tspan><tspan class="cls-48" x="1252.21" y="144">w</tspan><tspan class="cls-28" x="1272.83" y="144">/n</tspan><tspan class="cls-37" x="1302.17" y="144">e</tspan><tspan class="cls-24" x="1318.05" y="144">ws</tspan><tspan class="cls-22" x="1352.78" y="144">r</tspan><tspan class="cls-28" x="1364.71" y="144">oom</tspan><tspan class="cls-49" x="1421.89" y="144">/</tspan><tspan class="cls-50" x="1434.58" y="144">t</tspan><tspan class="cls-24" x="1446.02" y="144">ai</tspan><tspan class="cls-51" x="1471.81" y="144">w</tspan><tspan class="cls-28" x="1492.39" y="144">an/7308</tspan><tspan x="0" y="192">戴安</tspan><tspan class="cls-14" x="50.4" y="192">瑋</tspan><tspan class="cls-32" x="65.86" y="192">（</tspan><tspan x="90.3" y="192">201</tspan><tspan class="cls-32" x="137.49" y="192">8</tspan><tspan class="cls-33" x="152.46" y="192">）</tspan><tspan class="cls-16" x="162.67" y="192">。</tspan><tspan x="182.62" y="192">露營區平台明上線　首波公布84家公營露營場名</tspan><tspan class="cls-16" x="718.08" y="192">單。</tspan><tspan x="757.98" y="192">蘋果新聞</tspan><tspan class="cls-42" x="858.78" y="192">網。</tspan><tspan x="898.68" y="192">h</tspan><tspan class="cls-17" x="915.52" y="192">t</tspan><tspan class="cls-28" x="927.01" y="192">tps:/</tspan><tspan class="cls-52" x="992.3" y="192">/</tspan><tspan class="cls-24" x="1004.98" y="192">t</tspan><tspan class="cls-20" x="1016.93" y="192">w</tspan><tspan class="cls-24" x="1036.92" y="192">.appledail</tspan><tspan class="cls-44" x="1175.71" y="192">y</tspan><tspan class="cls-45" x="1189.95" y="192">.</tspan><tspan class="cls-53" x="1199.54" y="192">c</tspan><tspan class="cls-28" x="1213.89" y="192">om/li</tspan><tspan class="cls-51" x="1286.57" y="192">f</tspan><tspan class="cls-28" x="1297.19" y="192">e/20180115/</tspan><tspan class="cls-54" x="1463.61" y="192">V</tspan><tspan class="cls-24" x="1479.41" y="192">AIAPW444B7IK</tspan><tspan class="cls-24" x="1671.79" y="192">-</tspan><tspan class="cls-55"><tspan x="0" y="240">W</tspan><tspan class="cls-56" x="22.34" y="240">QEL4R</tspan><tspan class="cls-57" x="107.04" y="240">U</tspan><tspan class="cls-56" x="125.87" y="240">ASEP6M/</tspan></tspan><tspan x="0" y="288">交通部觀光</tspan><tspan class="cls-14" x="126" y="288">局</tspan><tspan class="cls-15" x="141.46" y="288">（</tspan><tspan x="165.9" y="288">201</tspan><tspan class="cls-32" x="213.09" y="288">9</tspan><tspan class="cls-33" x="228.06" y="288">）</tspan><tspan class="cls-16" x="238.27" y="288">。</tspan><tspan x="258.22" y="288">國人旅遊狀況調</tspan><tspan class="cls-16" x="434.62" y="288">查。</tspan><tspan x="474.52" y="288">h</tspan><tspan class="cls-58" x="491.36" y="288">t</tspan><tspan class="cls-24" x="502.85" y="288">tps:/</tspan><tspan class="cls-59" x="568.14" y="288">/</tspan><tspan x="580.02" y="288">admin</tspan><tspan class="cls-60" x="663.33" y="288">.</tspan><tspan class="cls-61" x="672.19" y="288">t</tspan><tspan x="683.63" y="288">ai</tspan><tspan class="cls-22" x="709.42" y="288">w</tspan><tspan class="cls-24" x="730" y="288">an.n</tspan><tspan class="cls-22" x="789.62" y="288">e</tspan><tspan class="cls-62" x="805.12" y="288">t</tspan><tspan class="cls-60" x="817.28" y="288">.</tspan><tspan x="826.14" y="288">t</tspan><tspan class="cls-63" x="838.09" y="288">w</tspan><tspan x="858.71" y="288">/FileUpl</tspan><tspan class="cls-27" x="968.85" y="288">o</tspan><tspan class="cls-28" x="985.36" y="288">adC</tspan><tspan class="cls-54" x="1035.93" y="288">at</tspan><tspan class="cls-64" x="1063.18" y="288">e</tspan><tspan class="cls-65" x="1078.68" y="288">g</tspan><tspan x="1094.26" y="288">o</tspan><tspan class="cls-18" x="1111.11" y="288">r</tspan><tspan class="cls-28" x="1123.92" y="288">yLi</tspan><tspan class="cls-31" x="1164.17" y="288">s</tspan><tspan class="cls-28" x="1177.63" y="288">tC003340.as</tspan><tspan class="cls-24" x="1341.2" y="288">-</tspan><tspan class="cls-66"><tspan x="0" y="336">p</tspan><tspan class="cls-56" x="16.74" y="336">x?C</tspan><tspan class="cls-54" x="62.66" y="336">at</tspan><tspan class="cls-22" x="89.92" y="336">e</tspan><tspan class="cls-54" x="105.42" y="336">g</tspan><tspan class="cls-24" x="121" y="336">o</tspan><tspan class="cls-67" x="137.84" y="336">r</tspan><tspan class="cls-24" x="150.65" y="336">yID=7b8d</tspan><tspan class="cls-17" x="275.77" y="336">ff</tspan><tspan class="cls-56" x="292.74" y="336">a9-3b9</tspan><tspan class="cls-68" x="384.36" y="336">c</tspan><tspan class="cls-56" x="398.77" y="336">-4b18-bf05-0ab402789d59</tspan></tspan><tspan x="0" y="384">Google </tspan><tspan class="cls-69" x="102.82" y="384">T</tspan><tspan class="cls-64" x="118.4" y="384">r</tspan><tspan x="130.32" y="384">end</tspan><tspan class="cls-14" x="180.07" y="384">s</tspan><tspan class="cls-32" x="184.25" y="384">（</tspan><tspan x="208.7" y="384">201</tspan><tspan class="cls-32" x="255.88" y="384">9</tspan><tspan class="cls-39" x="270.86" y="384">）</tspan><tspan class="cls-16" x="281.06" y="384">。</tspan><tspan x="301.01" y="384">搜尋熱度的趨勢變</tspan><tspan class="cls-16" x="502.61" y="384">化。</tspan><tspan x="542.51" y="384">h</tspan><tspan class="cls-17" x="559.36" y="384">t</tspan><tspan x="570.84" y="384">tps:/</tspan><tspan class="cls-52" x="636.13" y="384">/</tspan><tspan x="648.82" y="384">t</tspan><tspan class="cls-22" x="660.76" y="384">r</tspan><tspan class="cls-24" x="672.69" y="384">ends.</tspan><tspan class="cls-54" x="746.23" y="384">g</tspan><tspan x="761.82" y="384">oogle</tspan><tspan class="cls-35" x="837.18" y="384">.</tspan><tspan class="cls-36" x="846.78" y="384">c</tspan><tspan x="861.12" y="384">om</tspan><tspan class="cls-23" x="901.46" y="384">.</tspan><tspan class="cls-24" x="910.33" y="384">t</tspan><tspan class="cls-25" x="922.27" y="384">w</tspan><tspan class="cls-52" x="942.9" y="384">/</tspan><tspan class="cls-28" x="955.58" y="384">t</tspan><tspan class="cls-22" x="967.53" y="384">r</tspan><tspan x="979.46" y="384">ends</tspan><tspan class="cls-70" x="1043.13" y="384">/</tspan><tspan class="cls-71" x="1054.78" y="384">e</tspan><tspan class="cls-24" x="1070.37" y="384">xplo</tspan><tspan class="cls-51" x="1128.79" y="384">r</tspan><tspan class="cls-72" x="1140.72" y="384">e</tspan><tspan class="cls-24" x="1156.3" y="384">?</tspan><tspan class="cls-24" x="1170.3" y="384">-</tspan><tspan x="0" y="432">d</tspan><tspan class="cls-54" x="17.11" y="432">at</tspan><tspan x="44.37" y="432">e=2019-01-01%202019-12-31&amp;</tspan><tspan class="cls-54" x="446.21" y="432">g</tspan><tspan x="461.79" y="432">eo=TW&amp;q=%E9%9C%B2%E7%87%9F</tspan><tspan x="0" y="480">TV</tspan><tspan class="cls-54" x="32.78" y="480">B</tspan><tspan x="50.36" y="480">S新</tspan><tspan class="cls-14" x="92.19" y="480">聞</tspan><tspan class="cls-73" x="107.65" y="480">（</tspan><tspan class="cls-28" x="132.09" y="480">201</tspan><tspan class="cls-15" x="179.28" y="480">6</tspan><tspan class="cls-74" x="194.25" y="480">）</tspan><tspan class="cls-16" x="204.46" y="480">。</tspan><tspan x="224.41" y="480">英研發彈出式太陽能帳篷　30秒快速搭</tspan><tspan class="cls-16" x="659.07" y="480">好。</tspan><tspan x="698.97" y="480">h</tspan><tspan class="cls-17" x="715.81" y="480">t</tspan><tspan x="727.3" y="480">tps://n</tspan><tspan class="cls-34" x="821.92" y="480">e</tspan><tspan x="837.8" y="480">ws</tspan><tspan class="cls-60" x="872.53" y="480">.</tspan><tspan x="881.39" y="480">tvbs</tspan><tspan class="cls-35" x="939.29" y="480">.</tspan><tspan class="cls-36" x="948.89" y="480">c</tspan><tspan x="963.23" y="480">om</tspan><tspan class="cls-75" x="1003.57" y="480">.</tspan><tspan class="cls-28" x="1012.43" y="480">t</tspan><tspan class="cls-25" x="1024.38" y="480">w</tspan><tspan class="cls-70" x="1045" y="480">/</tspan><tspan x="1056.66" y="480">en</tspan><tspan class="cls-54" x="1089.29" y="480">t</tspan><tspan class="cls-28" x="1100.92" y="480">er</tspan><tspan class="cls-76" x="1128.81" y="480">t</tspan><tspan class="cls-28" x="1140.26" y="480">ainmen</tspan><tspan class="cls-77" x="1239.08" y="480">t</tspan><tspan class="cls-28" x="1251.3" y="480">/662307</tspan><tspan x="0" y="528">inboundmar</tspan><tspan class="cls-78" x="163.15" y="528">k</tspan><tspan class="cls-22" x="178.35" y="528">e</tspan><tspan x="193.85" y="528">ting集客數位行銷網站(2019)</tspan><tspan x="0" y="576">h</tspan><tspan class="cls-17" x="16.84" y="576">t</tspan><tspan x="28.33" y="576">tps:/</tspan><tspan class="cls-18" x="93.62" y="576">/</tspan><tspan class="cls-24" x="106.7" y="576">inboundmar</tspan><tspan class="cls-57" x="269.85" y="576">k</tspan><tspan class="cls-64" x="285.05" y="576">e</tspan><tspan x="300.55" y="576">ting</tspan><tspan class="cls-21" x="355.15" y="576">.</tspan><tspan class="cls-36" x="364.74" y="576">c</tspan><tspan class="cls-28" x="379.09" y="576">om</tspan><tspan class="cls-60" x="419.43" y="576">.</tspan><tspan x="428.29" y="576">t</tspan><tspan class="cls-25" x="440.24" y="576">w</tspan><tspan x="460.86" y="576">/mar</tspan><tspan class="cls-57" x="524.89" y="576">k</tspan><tspan class="cls-64" x="540.09" y="576">e</tspan><tspan x="555.59" y="576">tin</tspan><tspan class="cls-79" x="594.29" y="576">g</tspan><tspan x="611.37" y="576">/%E8%A1%8C%E9%8A%B7%E6%B4%BB%E5%8B%95.html</tspan><tspan x="0" y="624">數位時代</tspan><tspan class="cls-22" x="100.8" y="624">f</tspan><tspan class="cls-27" x="111.43" y="624">e</tspan><tspan class="cls-54" x="126.82" y="624">a</tspan><tspan class="cls-62" x="142.44" y="624">t</tspan><tspan class="cls-24" x="154.6" y="624">.</tspan><tspan class="cls-80" x="164.47" y="624">K</tspan><tspan x="181.65" y="624">OL </tspan><tspan class="cls-81" x="225.67" y="624">R</tspan><tspan x="242.95" y="624">ada</tspan><tspan class="cls-16" x="291.94" y="624">r，</tspan><tspan x="318.8" y="624">第一屆百大網紅人氣榜(2019)</tspan><tspan x="0" y="672">h</tspan><tspan class="cls-17" x="16.84" y="672">t</tspan><tspan x="28.33" y="672">tps:/</tspan><tspan class="cls-82" x="93.62" y="672">/</tspan><tspan class="cls-83" x="105.27" y="672">e</tspan><tspan class="cls-81" x="121.15" y="672">v</tspan><tspan x="135.99" y="672">en</tspan><tspan class="cls-62" x="168.63" y="672">t</tspan><tspan x="180.79" y="672">.bn</tspan><tspan class="cls-71" x="224.66" y="672">e</tspan><tspan class="cls-59" x="240.24" y="672">x</tspan><tspan class="cls-62" x="254.1" y="672">t</tspan><tspan class="cls-35" x="266.26" y="672">.</tspan><tspan class="cls-36" x="275.85" y="672">c</tspan><tspan x="290.2" y="672">om</tspan><tspan class="cls-60" x="330.54" y="672">.</tspan><tspan class="cls-24" x="339.4" y="672">t</tspan><tspan class="cls-63" x="351.35" y="672">w</tspan><tspan x="371.97" y="672">/</tspan><tspan class="cls-84" x="384.4" y="672">K</tspan><tspan class="cls-28" x="401.58" y="672">OL/</tspan></text><rect class="cls-85" y="-1" width="1921" height="1081"/></svg>