<svg id="圖層_1" data-name="圖層 1" xmlns="http://www.w3.org/2000/svg"
 viewBox="0 0 2100 741.78">
<defs>
    <style>
        .cls-1, .cls-2{
            fill:#ccc;
        }
        .cls-1{
            opacity:0.39;
        }
        .cls-12{
            fill:#ccc;
        }
        .cls-12:hover{
            fill:#58bb95;
        }
        g:hover{
           fill:#ffffff;
        }
        .cls-3,.cls-4,.cls-7{
            fill:#fff;
        }
        .cls-4{
            font-size:20.13px;
            font-family:SourceHanSansTW-Medium-B5pc-H, Source Han Sans TW;
            letter-spacing:0.4em;
        }
        .cls-5{
            fill:#80c56e;
        }
        .cls-6{
            fill:#66ad66;
        }
        .cls-7{
            stroke:#000;
            stroke-linecap:round;
            stroke-linejoin:round;
            stroke-width:15px;
        }
        .cls-8{
            fill:#fec37d;
        }
        .cls-9{
            fill:#f9ae5d;
        }
        .cls-10{
            fill:#f2a559;
        }
        .cls-11{
            fill:#ea8f3d;
        }
    </style>
</defs>
<title></title>
<rect class="cls-1" width="2100" height="741.78" rx="58.83"/>
<a href="/work/A">
   <g>
      <rect class="cls-12" x="238.9" y="125.13" width="124.26" height="123.94" rx="5.57"/>
      <text x="301.03" y="187.1" dominant-baseline="middle" text-anchor="middle">A</text>
   </g>
</a>
<a href="/work/C">
   <g>
      <rect class="cls-12" x="394.35" y="125.13" width="124.26" height="123.94" rx="5.57"/>
      <text x="456.48" y="187.1" dominant-baseline="middle" text-anchor="middle">C</text>
   </g>
</a>
<a href="/work/E">
   <g>
      <rect class="cls-12" x="551.45" y="125.13" width="124.26" height="123.94" rx="5.57"/>
      <text x="613.58" y="187.1" dominant-baseline="middle" text-anchor="middle">E</text>
   </g>
</a>
<a href="/work/G">
   <g>
      <rect class="cls-12" x="705.28" y="125.13" width="124.26" height="123.94" rx="5.57"/>
      <text x="767.41" y="187.1" dominant-baseline="middle" text-anchor="middle">G</text>
   </g>
</a>
<a href="/work/I">
   <g>
      <rect class="cls-12" x="860.65" y="125.13" width="124.26" height="123.94" rx="5.57"/>
      <text x="922.78" y="187.1" dominant-baseline="middle" text-anchor="middle">I</text>
   </g>
</a>
<a href="/work/K">
   <g>
      <rect class="cls-12" x="1014.76" y="125.13" width="124.26" height="123.94" rx="5.57"/>
      <text x="1076.89" y="187.1" dominant-baseline="middle" text-anchor="middle">K</text>
   </g>
</a>
<a href="/work/M">
   <g>
      <rect class="cls-12" x="1171.34" y="125.13" width="124.26" height="123.94" rx="5.57"/>
      <text x="1233.47" y="187.1" dominant-baseline="middle" text-anchor="middle">M</text>
   </g>
</a>
<a href="/work/O">
   <g>
      <rect class="cls-12" x="1327.01" y="125.13" width="124.26" height="123.94" rx="5.57"/>
      <text x="1389.14" y="187.1" dominant-baseline="middle" text-anchor="middle">O</text>
   </g>
</a>
<a href="/work/Q">
   <g>
      <rect class="cls-12" x="1478.98" y="125.13" width="124.26" height="123.94" rx="5.57"/>
      <text x="1541.11" y="187.1" dominant-baseline="middle" text-anchor="middle">Q</text>
   </g>
</a>
<a href="/work/B">
   <g>
      <rect class="cls-12" x="238.9" y="491.09" width="124.26" height="123.94" rx="5.57"/>
      <text x="301.03" y="553.06" dominant-baseline="middle" text-anchor="middle">B</text>
   </g>
</a>
<a href="/work/D">
   <g>
      <rect class="cls-12" x="394.35" y="491.09" width="124.26" height="123.94" rx="5.57"/>
      <text x="456.48" y="553.06" dominant-baseline="middle" text-anchor="middle">D</text>
   </g>
</a>
<a href="/work/F">
   <g>
      <rect class="cls-12" x="551.45" y="491.09" width="124.26" height="123.94" rx="5.57"/>
      <text x="613.58" y="553.06" dominant-baseline="middle" text-anchor="middle">F</text>
   </g>
</a>
<a href="/work/H">
   <g>
      <rect class="cls-12" x="705.28" y="491.09" width="124.26" height="123.94" rx="5.57"/>
      <text x="767.41" y="553.06" dominant-baseline="middle" text-anchor="middle">H</text>
   </g>
</a>
<a href="/work/J">
   <g>
      <rect class="cls-12" x="860.65" y="491.09" width="124.26" height="123.94" rx="5.57"/>
      <text x="922.78" y="553.06" dominant-baseline="middle" text-anchor="middle">J</text>
   </g>
</a>
<a href="/work/L">
   <g>
      <rect class="cls-12" x="1014.76" y="491.09" width="124.26" height="123.94" rx="5.57"/>
      <text x="1076.89" y="553.06" dominant-baseline="middle" text-anchor="middle">L</text>
   </g>
</a>
<a href="/work/N">
   <g>
      <rect class="cls-12" x="1171.34" y="491.09" width="124.26" height="123.94" rx="5.57"/>
      <text x="1233.47" y="553.06" dominant-baseline="middle" text-anchor="middle">N</text>
   </g>
</a>
<a href="/work/P">
   <g>
      <rect class="cls-12" x="1327.01" y="491.09" width="124.26" height="123.94" rx="5.57"/>
      <text x="1389.14" y="553.06" dominant-baseline="middle" text-anchor="middle">P</text>
   </g>
</a>
<a href="/work/R">
   <g>
      <rect class="cls-12" x="1478.98" y="491.09" width="124.26" height="123.94" rx="5.57"/>
      <text x="1541.11" y="553.06" dominant-baseline="middle" text-anchor="middle">R</text>
   </g>
</a>
 <path class="cls-3" d="M380.77,271.14h64.74c-3.77,11.58-9.33,29.64-14.86,52C421,362.23,393.43,487.1,420,648.93a856,856,0,0,0,25.47,109.3l-62.62,1.07Z" transform="translate(-258.45 -146.01)"/>
 <rect class="cls-3" x="64.43" y="250.98" width="63.67" height="248.32"/>
 <rect class="cls-2" x="71.83" y="259.76" width="42.45" height="113.55"/>
 <rect class="cls-2" x="71.83" y="378.85" width="42.45" height="113.55"/>
 <rect class="cls-1" x="1757.83" y="126.89" width="249.92" height="488.1" rx="36.99"/>
 <text class="cls-4" transform="translate(1841.5 372.64)">主會場</text>
 <path class="cls-5" d="M1987.75,286.64c.33.9,4,11.6-3.51,24.22-4.56,7.66-11.47,8.17-12.14,8.2-.4-.55-4.3-6.27-1.13-14.61C1976.19,290.74,1986.84,286.94,1987.75,286.64Z" transform="translate(-258.45 -146.01)"/>
 <path class="cls-6" d="M1987.75,286.64l-15.65,32.42h0c.67,0,7.58-.54,12.14-8.2C1991.73,298.24,1988.08,287.54,1987.75,286.64Z" transform="translate(-258.45 -146.01)"/>
 <path class="cls-7" d="M1971.61,320.06l.49-1,0-.05Z" transform="translate(-258.45 -146.01)"/>
 <path class="cls-5" d="M1943.29,286.64c-.32.9-4,11.6,3.52,24.22,4.55,7.66,11.46,8.17,12.14,8.2.39-.55,4.29-6.27,1.12-14.61C1954.86,290.74,1944.2,286.94,1943.29,286.64Z" transform="translate(-258.45 -146.01)"/>
 <path class="cls-6" d="M1960.07,304.45c-5.21-13.71-15.87-17.51-16.78-17.81,9.26,17.68,14.25,29,15.69,32.37C1959.54,318.22,1963.16,312.57,1960.07,304.45Z" transform="translate(-258.45 -146.01)"/>
 <path class="cls-5" d="M1965.52,280c-1.11,1.08-14,14.15-12,37.9,1.24,14.42,11,20,12,20.57,1-.53,10.72-6.15,12-20.57C1979.54,294.17,1966.64,281.1,1965.52,280Z" transform="translate(-258.45 -146.01)"/>
 <path class="cls-6" d="M1965.52,280v58.47A25.63,25.63,0,0,0,1979,317.92C1981.28,294.17,1966.78,281.1,1965.52,280Z" transform="translate(-258.45 -146.01)"/>
 <path class="cls-5" d="M1994.19,314.49a53.61,53.61,0,0,0,1.67-17.57s-4.85,2.27-17,10.56c-9.48,6.44-12.41,17.73-13.29,20.77h11.14A18.38,18.38,0,0,0,1994.19,314.49Z" transform="translate(-258.45 -146.01)"/>
 <path class="cls-6" d="M1995.86,296.92s-12.53,26-30.34,31.33h11.14a18.38,18.38,0,0,0,17.53-13.76A53.61,53.61,0,0,0,1995.86,296.92Z" transform="translate(-258.45 -146.01)"/>
 <path class="cls-5" d="M1937.91,316.37a46.75,46.75,0,0,1-1.61-16.1s4.68,2.09,16.42,9.68c9.13,5.9,12,16.24,12.8,19h-10.73A17.56,17.56,0,0,1,1937.91,316.37Z" transform="translate(-258.45 -146.01)"/>
 <path class="cls-6" d="M1965.52,329c-.85-2.79-3.67-13.13-12.8-19-11.74-7.59-16.42-9.68-16.42-9.68S1948.37,324.12,1965.52,329Z" transform="translate(-258.45 -146.01)"/>
 <path class="cls-8" d="M1973.28,354.45h-15.52a8.56,8.56,0,0,1-8.4-7L1946,329.57h39l-3.33,17.89A8.54,8.54,0,0,1,1973.28,354.45Z" transform="translate(-258.45 -146.01)"/>
 <path class="cls-9" d="M1977.47,329.57l-3.33,17.89a8.54,8.54,0,0,1-8.4,7h7.54a8.54,8.54,0,0,0,8.4-7l3.33-17.89Z" transform="translate(-258.45 -146.01)"/>
 <path class="cls-10" d="M1985.69,333.6h-40.33a3,3,0,0,1-3-3h0a3,3,0,0,1,3-3h40.33a3,3,0,0,1,3,3h0A3,3,0,0,1,1985.69,333.6Z" transform="translate(-258.45 -146.01)"/>
 <path class="cls-11" d="M1985.69,327.68h-4.75v5.92h4.75a3,3,0,0,0,3-3h0A3,3,0,0,0,1985.69,327.68Z" transform="translate(-258.45 -146.01)"/>
 <path class="cls-5" d="M1987.75,689.9c.33.9,4,11.6-3.51,24.22-4.56,7.67-11.47,8.17-12.14,8.21-.4-.55-4.3-6.28-1.13-14.61C1976.19,694,1986.84,690.2,1987.75,689.9Z" transform="translate(-258.45 -146.01)"/>
 <path class="cls-6" d="M1987.75,689.9l-15.65,32.43h0c.67,0,7.58-.54,12.14-8.21C1991.73,701.5,1988.08,690.8,1987.75,689.9Z" transform="translate(-258.45 -146.01)"/>
 <path class="cls-7" d="M1971.61,723.33l.49-1,0-.06Z" transform="translate(-258.45 -146.01)"/>
 <path class="cls-5" d="M1943.29,689.9c-.32.9-4,11.6,3.52,24.22,4.55,7.67,11.46,8.17,12.14,8.21.39-.55,4.29-6.28,1.12-14.61C1954.86,694,1944.2,690.2,1943.29,689.9Z" transform="translate(-258.45 -146.01)"/>
 <path class="cls-6" d="M1960.07,707.72c-5.21-13.72-15.87-17.52-16.78-17.82,9.26,17.68,14.25,29,15.69,32.37C1959.54,721.48,1963.16,715.83,1960.07,707.72Z" transform="translate(-258.45 -146.01)"/>
 <path class="cls-5" d="M1965.52,683.28c-1.11,1.09-14,14.16-12,37.9,1.24,14.42,11,20,12,20.57,1-.53,10.72-6.15,12-20.57C1979.54,697.44,1966.64,684.37,1965.52,683.28Z" transform="translate(-258.45 -146.01)"/>
 <path class="cls-6" d="M1965.52,683.28v58.47A25.63,25.63,0,0,0,1979,721.18C1981.28,697.44,1966.78,684.37,1965.52,683.28Z" transform="translate(-258.45 -146.01)"/>
 <path class="cls-5" d="M1994.19,717.75a53.6,53.6,0,0,0,1.67-17.57s-4.85,2.28-17,10.56c-9.48,6.44-12.41,17.73-13.29,20.78h11.14A18.38,18.38,0,0,0,1994.19,717.75Z" transform="translate(-258.45 -146.01)"/>
 <path class="cls-6" d="M1995.86,700.18s-12.53,26-30.34,31.34h11.14a18.38,18.38,0,0,0,17.53-13.77A53.6,53.6,0,0,0,1995.86,700.18Z" transform="translate(-258.45 -146.01)"/>
 <path class="cls-5" d="M1937.91,719.63a46.7,46.7,0,0,1-1.61-16.09s4.68,2.08,16.42,9.67c9.13,5.9,12,16.24,12.8,19h-10.73A17.56,17.56,0,0,1,1937.91,719.63Z" transform="translate(-258.45 -146.01)"/>
 <path class="cls-6" d="M1965.52,732.24c-.85-2.79-3.67-13.13-12.8-19-11.74-7.59-16.42-9.67-16.42-9.67S1948.37,727.38,1965.52,732.24Z" transform="translate(-258.45 -146.01)"/>
 <path class="cls-8" d="M1973.28,757.71h-15.52a8.56,8.56,0,0,1-8.4-7L1946,732.84h39l-3.33,17.89A8.54,8.54,0,0,1,1973.28,757.71Z" transform="translate(-258.45 -146.01)"/>
 <path class="cls-9" d="M1977.47,732.84l-3.33,17.89a8.54,8.54,0,0,1-8.4,7h7.54a8.54,8.54,0,0,0,8.4-7l3.33-17.89Z" transform="translate(-258.45 -146.01)"/>
 <path class="cls-10" d="M1985.69,736.86h-40.33a3,3,0,0,1-3-3h0a3,3,0,0,1,3-3h40.33a3,3,0,0,1,3,3h0A3,3,0,0,1,1985.69,736.86Z" transform="translate(-258.45 -146.01)"/>
 <path class="cls-11" d="M1985.69,730.94h-4.75v5.92h4.75a3,3,0,0,0,3-3h0A3,3,0,0,0,1985.69,730.94Z" transform="translate(-258.45 -146.01)"/>
 </svg>