<svg id="圖層_1" data-name="圖層 1" xmlns="http://www.w3.org/2000/svg" viewBox="0 0 1920 1080"><defs><style>.cls-1{font-size:25px;font-family:NotoSansCJKtc-Medium-B5pc-H, Noto Sans CJK TC;letter-spacing:0.2em;}.cls-2{font-size:21.32px;font-family:NotoSansCJKtc-DemiLight-B5pc-H, Noto Sans CJK TC;letter-spacing:0.2em;}.cls-3{letter-spacing:0.18em;}.cls-4{letter-spacing:0.23em;}.cls-5{letter-spacing:0.2em;}.cls-6{letter-spacing:0.2em;}.cls-7{letter-spacing:0.16em;}.cls-8{letter-spacing:0.19em;}.cls-9{letter-spacing:0.19em;}.cls-10{letter-spacing:0.15em;}.cls-11{letter-spacing:0.19em;}.cls-12{letter-spacing:0.17em;}.cls-13{letter-spacing:0.21em;}.cls-14{letter-spacing:0.18em;}.cls-15{letter-spacing:0.18em;}.cls-16{letter-spacing:0.2em;}.cls-17{letter-spacing:0.16em;}.cls-18{letter-spacing:0.19em;}.cls-19{letter-spacing:0.17em;}.cls-20{letter-spacing:0.18em;}.cls-21{letter-spacing:0.18em;}.cls-22{letter-spacing:0.21em;}.cls-23{letter-spacing:0.21em;}.cls-24{letter-spacing:0.19em;}.cls-25{letter-spacing:0.19em;}.cls-26{letter-spacing:0.18em;}.cls-27{letter-spacing:0.18em;}</style></defs><title>K</title><text class="cls-1" transform="translate(902.04 212.39)">資料來源</text><text class="cls-2" transform="matrix(0.98, 0, -0.17, 0.98, 478.81, 310.27)">科技產業資訊室專刊h<tspan class="cls-3" x="247.4" y="0">t</tspan><tspan x="259.06" y="0">tps:/</tspan><tspan class="cls-4" x="325.36" y="0">/</tspan><tspan class="cls-5" x="338.64" y="0">ikn</tspan><tspan class="cls-6" x="381.65" y="0">o</tspan><tspan class="cls-7" x="398.67" y="0">w</tspan><tspan class="cls-5" x="418.97" y="0">.</tspan><tspan class="cls-3" x="428.99" y="0">s</tspan><tspan x="442.66" y="0">tpi.narl</tspan><tspan class="cls-8" x="548.11" y="0">.</tspan><tspan class="cls-5" x="557.85" y="0">o</tspan><tspan class="cls-9" x="574.95" y="0">r</tspan><tspan x="587.07" y="0">g</tspan><tspan class="cls-10" x="603.21" y="0">.</tspan><tspan x="612.21" y="0">t</tspan><tspan class="cls-11" x="624.34" y="0">w</tspan><tspan x="645.28" y="0">/</tspan><tspan class="cls-12" x="657.9" y="0">P</tspan><tspan x="674.94" y="0">o</tspan><tspan class="cls-3" x="692.04" y="0">s</tspan><tspan class="cls-13" x="705.71" y="0">t</tspan><tspan class="cls-5" x="718.12" y="0">/</tspan><tspan class="cls-9" x="730.75" y="0">R</tspan><tspan class="cls-14" x="748.15" y="0">e</tspan><tspan x="763.78" y="0">ad.as</tspan><tspan class="cls-15" x="837.68" y="0">p</tspan><tspan x="854.68" y="0">x?</tspan><tspan class="cls-12" x="883.53" y="0">P</tspan><tspan x="900.57" y="0">o</tspan><tspan class="cls-3" x="917.67" y="0">s</tspan><tspan x="931.34" y="0">tID=15321</tspan><tspan x="25.59" y="36.56">卓越雜誌報導　h</tspan><tspan class="cls-3" x="221.81" y="36.56">t</tspan><tspan x="233.48" y="36.56">tps:/</tspan><tspan class="cls-4" x="299.77" y="36.56">/</tspan><tspan x="313.06" y="36.56">ikn</tspan><tspan class="cls-16" x="356.07" y="36.56">o</tspan><tspan class="cls-17" x="373.08" y="36.56">w</tspan><tspan x="393.38" y="36.56">.</tspan><tspan class="cls-3" x="403.4" y="36.56">s</tspan><tspan class="cls-5" x="417.07" y="36.56">tpi.narl</tspan><tspan class="cls-8" x="522.52" y="36.56">.</tspan><tspan x="532.26" y="36.56">o</tspan><tspan class="cls-9" x="549.37" y="36.56">r</tspan><tspan class="cls-5" x="561.48" y="36.56">g</tspan><tspan class="cls-10" x="577.62" y="36.56">.</tspan><tspan x="586.62" y="36.56">t</tspan><tspan class="cls-18" x="598.75" y="36.56">w</tspan><tspan x="619.69" y="36.56">/</tspan><tspan class="cls-19" x="632.32" y="36.56">P</tspan><tspan x="649.35" y="36.56">o</tspan><tspan class="cls-3" x="666.45" y="36.56">s</tspan><tspan class="cls-13" x="680.12" y="36.56">t</tspan><tspan x="692.53" y="36.56">/</tspan><tspan class="cls-9" x="705.16" y="36.56">R</tspan><tspan class="cls-20" x="722.56" y="36.56">e</tspan><tspan x="738.19" y="36.56">ad.as</tspan><tspan class="cls-15" x="812.1" y="36.56">p</tspan><tspan x="829.09" y="36.56">x?</tspan><tspan class="cls-12" x="857.94" y="36.56">P</tspan><tspan class="cls-5" x="874.98" y="36.56">o</tspan><tspan class="cls-3" x="892.08" y="36.56">s</tspan><tspan x="905.75" y="36.56">tID=15321</tspan><tspan x="380.73" y="73.11">中華民國露營協會官方網站</tspan><tspan x="342.34" y="109.67">中華民國露營休閒車協會官方網站</tspan><tspan x="367.93" y="146.22">露營窩－營地資料庫官方網站</tspan><tspan x="429.87" y="182.78">GOOGLE TREND</tspan><tspan x="58.77" y="219.33">台灣露營休閒活動調查h</tspan><tspan class="cls-3" x="331.76" y="219.33">t</tspan><tspan class="cls-5" x="343.42" y="219.33">tps://ww</tspan><tspan class="cls-7" x="464.6" y="219.33">w</tspan><tspan x="484.9" y="219.33">.ix</tspan><tspan class="cls-9" x="519.56" y="219.33">r</tspan><tspan x="531.67" y="219.33">es</tspan><tspan class="cls-20" x="561.78" y="219.33">e</tspan><tspan class="cls-5" x="577.41" y="219.33">a</tspan><tspan class="cls-9" x="593.59" y="219.33">r</tspan><tspan x="605.7" y="219.33">ch</tspan><tspan class="cls-8" x="637.86" y="219.33">.</tspan><tspan class="cls-21" x="647.61" y="219.33">c</tspan><tspan x="662.17" y="219.33">om/n</tspan><tspan class="cls-22" x="732.92" y="219.33">e</tspan><tspan x="749.04" y="219.33">ws/n</tspan><tspan class="cls-23" x="814.1" y="219.33">e</tspan><tspan class="cls-5" x="830.22" y="219.33">ws_01_12_16</tspan><tspan x="-43.98" y="255.89">中時電子報h</tspan><tspan class="cls-3" x="101.07" y="255.89">t</tspan><tspan class="cls-5" x="112.73" y="255.89">tps://ww</tspan><tspan class="cls-7" x="233.91" y="255.89">w</tspan><tspan class="cls-8" x="254.21" y="255.89">.</tspan><tspan class="cls-5" x="263.96" y="255.89">chin</tspan><tspan class="cls-24" x="323.28" y="255.89">a</tspan><tspan class="cls-5" x="339.14" y="255.89">times</tspan><tspan class="cls-25" x="415.25" y="255.89">.</tspan><tspan class="cls-26" x="424.99" y="255.89">c</tspan><tspan x="439.56" y="255.89">om/</tspan><tspan class="cls-9" x="493.15" y="255.89">r</tspan><tspan class="cls-27" x="505.26" y="255.89">e</tspan><tspan x="520.89" y="255.89">altimen</tspan><tspan class="cls-23" x="626.42" y="255.89">e</tspan><tspan x="642.54" y="255.89">ws/20190723001178-260405?chdtv</tspan><tspan x="421.08" y="292.44">圖片/照片 張鈞淯攝</tspan></text></svg>