<svg id="圖層_1" data-name="圖層 1" xmlns="http://www.w3.org/2000/svg" viewBox="0 0 1920 1080"><defs><style>.cls-1{font-size:125.64px;font-family:NotoSansCJKtc-Bold-B5pc-H, Noto Sans CJK TC;letter-spacing:0.1em;}.cls-1,.cls-9{fill:#333;}.cls-2{fill:none;}.cls-3{fill:#fffae4;}.cls-4{font-size:30px;fill:#4d4d4d;font-family:NotoSansCJKtc-Regular-B5pc-H, Noto Sans CJK TC;}.cls-5{letter-spacing:0.25em;}.cls-6{fill:#ffb601;}.cls-7{fill:#ff0;}.cls-8{fill:#00b0f0;}.cls-9{font-size:120px;font-family:HelveticaNeue-BoldItalic, Helvetica Neue;font-weight:700;font-style:italic;letter-spacing:0.1em;}</style></defs><title>嘉義市政府</title><text class="cls-1" transform="matrix(0.96, 0, -0.17, 0.98, 97.04, 402.02)">重新開始</text><rect class="cls-2" x="-1.04" y="0.12" width="1924" height="1078"/><path class="cls-3" d="M551.91,797.11c2.16-20.47-24.69-48.68-33.56-75.09-26.24-78.21,86.46-196.32,92.37-200.37.07,0,1-.65,2.17-1.36a17.89,17.89,0,0,1,2.79-1.46h0l7.8-2.36s1.13-.23,2.2-.39c187.69-27.35,527-32.58,527-32.58s323.95-5.78,486.63,22.08c11.66,2,39.27,8.1,70.48,17.67,27.87,8.54,42,13,53.7,22.08,5,3.92,46.58,37.27,50.34,88.35,4.29,58.2-42.88,107.09-47,163.43-.67,9.13-1.87,25.6,3.35,44.17,4.06,14.44,9,17.46,10.07,26.5,2.82,23.79-24.59,48-30.2,53-59.39,52.54-443.68,47.29-537,48.59-181.22,2.52-362.48-3.28-543.69,0-16.26.29-66.09,1.33-94-39.75-19.37-28.54-27.69-76.71-26.85-92.76,0-.46.29-5.35.76-11.84C550.44,809.62,551.76,798.59,551.91,797.11Z"/><text class="cls-4" transform="translate(635.24 587.4)"><tspan class="cls-5">不久後又獲得了在台北市政府都市計畫委員會實習的機</tspan><tspan x="900" y="0">會，</tspan><tspan class="cls-5" x="960" y="0">我便在</tspan><tspan class="cls-5" x="0" y="70">2020年</tspan><tspan x="134.1" y="70">3、</tspan><tspan class="cls-5" x="180.75" y="70">4</tspan><tspan x="204.9" y="70">月，</tspan><tspan class="cls-5" x="264.9" y="70">利用課餘的時間到台北市政府開始我的另一段冒</tspan><tspan x="1052.4" y="70">險，</tspan><tspan class="cls-5" x="0" y="140">想要一探究</tspan><tspan x="187.5" y="140">竟，</tspan><tspan class="cls-5" x="247.5" y="140">不同縣市政府單位</tspan><tspan x="547.5" y="140">間，</tspan><tspan class="cls-5" x="607.5" y="140">行政制度上會有什麼差</tspan><tspan x="982.5" y="140">異。</tspan><tspan class="cls-5" x="0" y="210">而一開始感受到最明顯的差異就</tspan><tspan x="525" y="210">是，</tspan><tspan class="cls-5" x="585" y="210">我的位置超大的!!終於不用把東</tspan><tspan class="cls-5" x="0" y="280">西都堆在一起了XD在工作方面</tspan><tspan x="502.8" y="280">呢，</tspan><tspan class="cls-5" x="562.8" y="280">台北市的分工相對比較</tspan><tspan x="937.8" y="280">細，</tspan><tspan class="cls-5" x="997.8" y="280">都市計</tspan><tspan class="cls-5" x="0" y="350">畫委員會主要是負責開會的部</tspan><tspan x="487.5" y="350">分，</tspan><tspan class="cls-5" x="547.5" y="350">就不會接觸到民眾洽</tspan><tspan x="885" y="350">公。</tspan></text><path class="cls-6" d="M1169.87,992.1l18.34-27.45a3.55,3.55,0,0,0-3-5.53h-36.69a3.55,3.55,0,0,0-3,5.53L1164,992.1A3.56,3.56,0,0,0,1169.87,992.1Z"/><rect class="cls-7" x="549.12" y="483.65" width="147.41" height="64.4" rx="13.39" transform="translate(-61.42 84.78) rotate(-7.42)"/><path class="cls-8" d="M599.33,527.58c2.81.53,5.77,1.13,7.69,1.63l-2.71,2.52a81,81,0,0,0-8.67-2.13l1.51-1.73-7.89,1,2.26,1.17a38.93,38.93,0,0,1-8.45,4.48,20,20,0,0,0-2.63-2,37,37,0,0,0,7.17-3.48l-3.89.51-1.22-9.37,19.58-2.55,1.22,9.37Zm5.7-11.16-25.82,3.37-.37-2.84,25.82-3.37Zm-20.41-4.73-4.88.64-.33-2.53,4.88-.63-.23-1.76,3.29-.43.23,1.76,6.5-.85-.23-1.76,3.46-.45.23,1.76,4.86-.63.32,2.53-4.85.63.46,3.49-13.26,1.72Zm1.62,11.77,4.65-.61-.17-1.36-4.66.61Zm.45,3.46,4.65-.6-.17-1.37-4.66.61Zm1.22-15.65.17,1.27,6.5-.84-.17-1.28ZM599,520.42l-4.91.64.18,1.36,4.91-.64Zm.45,3.46-4.91.64.18,1.36,4.91-.64Z"/><path class="cls-8" d="M619.47,509.81a36,36,0,0,1-2.67,6.26l1.79,13.74-3.41.44-1.29-9.9a24,24,0,0,1-2.39,2.45,26.5,26.5,0,0,0-2-3,22.4,22.4,0,0,0,6.15-9.46l-6.24.81-.42-3.23,7.69-1a38.75,38.75,0,0,0,.68-3.84l3.63.4c-.16,1-.38,1.95-.59,3l13.79-1.8.42,3.24Zm17.18,10.46-6.72.88.46,3.54c.22,1.71.05,2.62-1.1,3.29a15,15,0,0,1-5.08,1.15,12.47,12.47,0,0,0-1.36-3.11c1.44-.1,3.11-.32,3.56-.38s.61-.22.56-.59l-.45-3.46-7.21.94-.41-3.15,7.21-.94-.26-2a18.74,18.74,0,0,0,2.42-2.45l-7.69,1-.39-3L631,510.56l.68-.29,2.36,1.45a35,35,0,0,1-4.64,5.2l.15,1.08,6.72-.88Z"/><path class="cls-8" d="M664.11,516.78a14.2,14.2,0,0,1-4.53,4.46,79.88,79.88,0,0,0,8.46-.41,12.65,12.65,0,0,0-1.31,2.79,57.1,57.1,0,0,1-11.53-.14,64.16,64.16,0,0,1-11.94,3.2,9,9,0,0,0-1.43-2.56,73.48,73.48,0,0,0,8.44-1.73,18,18,0,0,1-3.69-1.68l.91-.58-4.74.61-.29-2.24,19-2.47.55-.22Zm-18.45-13.56-6.13.8-.32-2.44,6.13-.8-.17-1.33,3.35-.44.17,1.33,2.73-.35.32,2.44-2.73.36.12.93-3.35.44ZM642,513l22.76-3,.6,4.57-22.76,3Zm17.59-3-.7-5.42-13.06,1.7.71,5.42-3,.39L642.6,505l19.13-2.5.93,7.1Zm-14,5.56,3.32-.44-.18-1.36-3.32.43Zm1.27-6,11.84-1.54.2,1.53L647,511.13Zm11.72-2.42-11.8,1.54-.2-1.54,11.8-1.54Zm-8.43,12.61a18.05,18.05,0,0,0,4.65,1.1,15.69,15.69,0,0,0,4.09-2.24Zm1.85-5.06,3.35-.44-.18-1.36-3.34.44ZM655.06,502l-2.47.32-.32-2.44,2.47-.32-.18-1.34,3.38-.44.17,1.34,6.28-.82.31,2.44-6.27.82.12.93-3.37.44Zm3.31,11.89,3.46-.45-.18-1.36-3.46.45Z"/><text class="cls-9" transform="translate(104.87 201.25)">CHAPTER 9</text></svg>