<svg id="圖層_1" data-name="圖層 1" xmlns="http://www.w3.org/2000/svg" viewBox="0 0 1920 1080"><defs><style>.cls-1{font-size:125.64px;font-family:NotoSansCJKtc-Bold-B5pc-H, Noto Sans CJK TC;letter-spacing:0.1em;}.cls-1,.cls-13{fill:#333;}.cls-2{fill:none;}.cls-3{fill:#fffae4;}.cls-4{font-size:30px;fill:#4d4d4d;font-family:NotoSansCJKtc-Regular-B5pc-H, Noto Sans CJK TC;}.cls-5{letter-spacing:0.25em;}.cls-6{letter-spacing:-0.23em;}.cls-7{letter-spacing:0.23em;}.cls-8{letter-spacing:0.23em;}.cls-9{letter-spacing:-0.23em;}.cls-10{fill:#ffb601;}.cls-11{fill:#ff0;}.cls-12{fill:#00b0f0;}.cls-13{font-size:120px;font-family:HelveticaNeue-BoldItalic, Helvetica Neue;font-weight:700;font-style:italic;letter-spacing:0.1em;}</style></defs><title>嘉義市政府</title><text class="cls-1" transform="matrix(0.96, 0, -0.17, 0.98, 98.55, 402.23)">真正的結束</text><rect class="cls-2" x="0.47" y="0.33" width="1924" height="1078"/><path class="cls-3" d="M352.5,785.67c2.58-21.81-29.58-51.86-40.2-80C280.86,622.34,415.85,496.5,422.93,492.18c.08,0,1.2-.69,2.6-1.45a23,23,0,0,1,3.34-1.55h0l9.34-2.52s1.35-.24,2.63-.41C665.64,457.11,1072,451.53,1072,451.53s388-6.16,582.83,23.53c14,2.13,47,8.63,84.41,18.82,33.37,9.11,50.34,13.86,64.31,23.54,6,4.17,55.79,39.7,60.29,94.12,5.14,62-51.35,114.1-56.27,174.13-.8,9.73-2.23,27.28,4,47.06,4.86,15.39,10.77,18.6,12.06,28.24,3.38,25.34-29.45,51.18-36.18,56.47-71.13,56-531.38,50.38-643.12,51.77-217,2.69-434.13-3.49-651.16,0-19.48.31-79.15,1.42-112.55-42.36-23.19-30.4-33.16-81.72-32.15-98.83,0-.49.34-5.69.91-12.61C350.73,799,352.31,787.25,352.5,785.67Z"/><text class="cls-4" transform="translate(477 566.4)"><tspan class="cls-5">經歷兩</tspan><tspan class="cls-6" x="112.5" y="0">次</tspan><tspan class="cls-7" x="135.57" y="0">「</tspan><tspan class="cls-5" x="172.5" y="0">社子島大亂</tspan><tspan class="cls-8" x="360" y="0">鬥</tspan><tspan class="cls-9" x="396.93" y="0">」</tspan><tspan x="420" y="0">後，</tspan><tspan class="cls-5" x="480" y="0">我在台北市政府的實習也告一段落</tspan><tspan x="1042.5" y="0">了，</tspan><tspan class="cls-5" x="1102.5" y="0">聽大家說像社</tspan><tspan class="cls-5" x="0" y="70">子島這樣的開會情形不是常有</tspan><tspan x="487.5" y="70">的，</tspan><tspan class="cls-5" x="547.5" y="70">那能看到這樣光景的我也算是值得了吧XD我在</tspan><tspan class="cls-5" x="0" y="140">這裡的時間雖然很</tspan><tspan x="300" y="140">短，</tspan><tspan class="cls-5" x="360" y="140">但是也體驗到了很多新奇的事</tspan><tspan x="847.5" y="140">物，</tspan><tspan class="cls-5" x="907.5" y="140">辦公室的大家也都很照顧</tspan><tspan x="0" y="210">我，</tspan><tspan class="cls-5" x="60" y="210">經常餵食</tspan><tspan x="210" y="210">我，</tspan><tspan class="cls-5" x="270" y="210">關心我的身體狀</tspan><tspan x="532.5" y="210">況，</tspan><tspan class="cls-5" x="592.5" y="210">上班的氣氛也很歡</tspan><tspan x="892.5" y="210">樂，</tspan><tspan class="cls-5" x="952.5" y="210">還有同事送我他以前考</tspan><tspan class="cls-5" x="0" y="280">證照整理的講</tspan><tspan x="225" y="280">義，</tspan><tspan class="cls-5" x="285" y="280">讓我非常感</tspan><tspan x="472.5" y="280">動。</tspan><tspan class="cls-5" x="532.5" y="280">不管是在嘉義市或是台北市政府的實</tspan><tspan x="1132.5" y="280">習，</tspan><tspan class="cls-5" x="1192.5" y="280">都帶給</tspan><tspan class="cls-5" x="0" y="350">了我許多全新的體</tspan><tspan x="300" y="350">驗，</tspan><tspan class="cls-5" x="360" y="350">也給了我對未來從事的工作有新的方</tspan><tspan x="960" y="350">向，</tspan><tspan class="cls-5" x="1020" y="350">實在是受益良</tspan><tspan x="1245" y="350">多。</tspan></text><path class="cls-10" d="M1088.82,992l18.34-27.45a3.55,3.55,0,0,0-3-5.53h-36.69a3.55,3.55,0,0,0-3,5.53L1082.9,992A3.56,3.56,0,0,0,1088.82,992Z"/><rect class="cls-11" x="322.64" y="459.87" width="147.41" height="64.4" rx="13.39" transform="translate(-60.25 55.33) rotate(-7.42)"/><path class="cls-12" d="M372.85,503.8c2.81.53,5.77,1.13,7.68,1.63l-2.7,2.51a86.41,86.41,0,0,0-8.68-2.13l1.51-1.72-7.89,1,2.26,1.18a38.7,38.7,0,0,1-8.45,4.48,19.89,19.89,0,0,0-2.62-2,36.92,36.92,0,0,0,7.16-3.47l-3.88.5L356,496.47l19.58-2.55,1.22,9.36Zm5.7-11.16L352.72,496l-.37-2.83,25.83-3.37Zm-20.42-4.73-4.88.64-.33-2.53,4.89-.63-.23-1.76,3.29-.43.23,1.76,6.5-.85-.23-1.76,3.46-.45.23,1.76,4.85-.63.33,2.52-4.85.63.45,3.49-13.25,1.73Zm1.62,11.77,4.66-.61-.18-1.36-4.65.6Zm.45,3.46,4.66-.61-.18-1.36-4.65.61Zm1.23-15.66.16,1.28,6.5-.85-.17-1.27Zm11.06,9.15-4.91.64.18,1.36,4.91-.64Zm.45,3.46-4.91.64.18,1.37,4.91-.64Z"/><path class="cls-12" d="M393,486a35.64,35.64,0,0,1-2.68,6.26L392.1,506l-3.4.44-1.29-9.91A25.21,25.21,0,0,1,385,499a26.94,26.94,0,0,0-2-3,22.29,22.29,0,0,0,6.16-9.46l-6.25.82-.42-3.24,7.69-1c.29-1.31.53-2.58.69-3.84l3.63.39c-.16,1-.38,2-.6,3l13.79-1.8.42,3.23Zm17.18,10.46-6.73.87.46,3.55c.22,1.7.06,2.62-1.1,3.29a15.2,15.2,0,0,1-5.07,1.15,12.85,12.85,0,0,0-1.36-3.11c1.43-.1,3.1-.32,3.56-.38s.6-.22.56-.59l-.45-3.46-7.21.94-.41-3.16,7.2-.93-.25-2a19.39,19.39,0,0,0,2.42-2.45l-7.69,1-.4-3,10.79-1.4.68-.29,2.35,1.45a35.4,35.4,0,0,1-4.63,5.19l.14,1.08,6.73-.87Z"/><path class="cls-12" d="M437.63,493a14.18,14.18,0,0,1-4.53,4.45,77.54,77.54,0,0,0,8.46-.41,12.72,12.72,0,0,0-1.31,2.8,57.2,57.2,0,0,1-11.54-.14,64.83,64.83,0,0,1-11.93,3.2,9.28,9.28,0,0,0-1.43-2.56,73.74,73.74,0,0,0,8.43-1.73,17.46,17.46,0,0,1-3.68-1.69l.9-.58-4.73.62-.3-2.24,19-2.48.55-.21Zm-18.45-13.56-6.13.8-.32-2.44,6.13-.8-.17-1.34,3.34-.43.18,1.33,2.72-.35.32,2.44-2.72.35.12.94-3.35.44Zm-3.69,9.77,22.76-3,.59,4.57-22.76,3Zm17.59-3-.71-5.42-13.05,1.7.7,5.42-3,.39-.92-7.1,19.13-2.49.92,7.09ZM419,491.78l3.32-.43-.18-1.36-3.32.43Zm1.27-6,11.83-1.55.2,1.54-11.83,1.54ZM432,483.39l-11.81,1.54-.2-1.53,11.81-1.54ZM423.59,496a18.07,18.07,0,0,0,4.64,1.1,16.2,16.2,0,0,0,4.1-2.24Zm1.85-5.06,3.35-.44-.18-1.36-3.35.43Zm3.13-12.74-2.47.33-.32-2.44,2.47-.33-.17-1.33,3.38-.44.17,1.33,6.27-.81.32,2.44-6.27.81.12.94-3.38.44Zm3.31,11.9,3.46-.45-.17-1.37-3.47.46Z"/><text class="cls-13" transform="translate(106.39 201.46)">CHAPTER 11</text></svg>