<svg id="圖層_1" data-name="圖層 1" xmlns="http://www.w3.org/2000/svg" viewBox="0 0 1920 1080"><defs><style>.cls-1{font-size:36px;letter-spacing:-0.05em;}.cls-1,.cls-10,.cls-5,.cls-8,.cls-9{font-family:NotoSansCJKtc-DemiLight-B5pc-H, Noto Sans CJK TC;}.cls-2{letter-spacing:-0.09em;}.cls-3{letter-spacing:0.2em;}.cls-4{fill:none;}.cls-5{font-size:21px;}.cls-5,.cls-8{letter-spacing:0.2em;}.cls-6{letter-spacing:0.3em;}.cls-7{font-family:AdobeMingStd-Light-B5pc-H, Adobe Ming Std;letter-spacing:1.49em;}.cls-9{letter-spacing:-0.05em;}.cls-10{letter-spacing:0.21em;}.cls-11{fill:#333;}</style></defs><title>B</title><text class="cls-1" transform="translate(87.01 234.98) scale(0.98 1)">三、<tspan class="cls-2" x="68.4" y="0">	</tspan><tspan class="cls-3" x="73.11" y="0">競爭者分析</tspan></text><rect class="cls-4" x="-1" y="1" width="1921" height="1081"/><text class="cls-5" transform="translate(87.01 337.16) scale(0.98 1)">1.<tspan class="cls-6" x="25.6" y="0">	</tspan><tspan x="36.56" y="0">武陵農場露營區</tspan><tspan class="cls-7"><tspan x="0" y="48">	</tspan><tspan class="cls-8" x="36.56" y="48">位</tspan><tspan class="cls-9" x="61.76" y="48">置：</tspan><tspan class="cls-8" x="101.66" y="48">台中市和平區</tspan><tspan x="0" y="96">	</tspan><tspan class="cls-8" x="36.56" y="96">產</tspan><tspan class="cls-9" x="61.76" y="96">品：</tspan><tspan class="cls-8" x="101.66" y="96">露營</tspan><tspan class="cls-9" x="152.06" y="96">屋、</tspan><tspan class="cls-8" x="191.96" y="96">露營位免搭式帳棚</tspan><tspan x="0" y="144">	</tspan><tspan class="cls-8" x="36.56" y="144">特</tspan><tspan class="cls-9" x="61.76" y="144">色：</tspan><tspan class="cls-8" x="101.66" y="144">櫻花鉤吻</tspan><tspan class="cls-9" x="202.46" y="144">鮭、</tspan><tspan class="cls-8" x="242.36" y="144">四季之景</tspan><tspan x="0" y="192">	</tspan><tspan class="cls-8" x="36.56" y="192">價</tspan><tspan class="cls-9" x="61.76" y="192">位：</tspan><tspan class="cls-8" x="101.66" y="192">1000元-2500元</tspan></tspan></text><text class="cls-5" transform="translate(87.01 700.73) scale(0.98 1)">2.<tspan class="cls-6" x="25.6" y="0">	</tspan><tspan x="36.56" y="0">綠島紫坪露營區</tspan><tspan class="cls-7"><tspan x="0" y="48">	</tspan><tspan class="cls-8" x="36.56" y="48">位</tspan><tspan class="cls-9" x="61.76" y="48">置：</tspan><tspan class="cls-8" x="101.66" y="48">台東縣綠島</tspan><tspan x="0" y="96">	</tspan><tspan class="cls-8" x="36.56" y="96">產</tspan><tspan class="cls-9" x="61.76" y="96">品：</tspan><tspan class="cls-8" x="101.66" y="96">宿營營</tspan><tspan class="cls-9" x="177.26" y="96">板、</tspan><tspan class="cls-8" x="217.16" y="96">屋式</tspan><tspan class="cls-9" x="267.56" y="96">帳、</tspan><tspan class="cls-10" x="307.46" y="96">R</tspan><tspan class="cls-8" x="325.01" y="96">V營車</tspan><tspan x="0" y="144">	</tspan><tspan class="cls-8" x="36.56" y="144">特</tspan><tspan class="cls-9" x="61.76" y="144">色：</tspan><tspan class="cls-8" x="101.66" y="144">紫坪風景區(潟湖地</tspan><tspan class="cls-9" x="314.41" y="144">)、</tspan><tspan class="cls-8" x="340.26" y="144">海</tspan><tspan class="cls-9" x="365.46" y="144">景、</tspan><tspan class="cls-8" x="405.36" y="144">溫</tspan><tspan class="cls-9" x="430.56" y="144">泉、</tspan><tspan class="cls-8" x="470.46" y="144">自然景觀</tspan><tspan x="0" y="192">	</tspan><tspan class="cls-8" x="36.56" y="192">價</tspan><tspan class="cls-9" x="61.76" y="192">位：</tspan><tspan class="cls-8" x="101.66" y="192">屋式帳人頭計費200元-400元</tspan></tspan></text><circle class="cls-11" cx="93.01" cy="377" r="6"/><circle class="cls-11" cx="93.01" cy="426" r="6"/><circle class="cls-11" cx="93.01" cy="475" r="6"/><circle class="cls-11" cx="93.01" cy="523" r="6"/><circle class="cls-11" cx="93.01" cy="742" r="6"/><circle class="cls-11" cx="93.01" cy="790" r="6"/><circle class="cls-11" cx="93.01" cy="839" r="6"/><circle class="cls-11" cx="93.01" cy="887" r="6"/><text class="cls-5" transform="translate(1043.75 337.16) scale(0.98 1)">3.<tspan class="cls-6" x="25.6" y="0">	</tspan><tspan x="36.56" y="0">19庄露營區</tspan><tspan class="cls-7"><tspan x="0" y="48">	</tspan><tspan class="cls-8" x="36.56" y="48">位</tspan><tspan class="cls-9" x="61.76" y="48">置：</tspan><tspan class="cls-8" x="101.66" y="48">新北市三芝區</tspan><tspan x="0" y="96">	</tspan><tspan class="cls-8" x="36.56" y="96">產</tspan><tspan class="cls-9" x="61.76" y="96">品：</tspan><tspan class="cls-8" x="101.66" y="96">露營位</tspan><tspan x="0" y="144">	</tspan><tspan class="cls-8" x="36.56" y="144">特</tspan><tspan class="cls-9" x="61.76" y="144">色：</tspan><tspan class="cls-8" x="101.66" y="144">海</tspan><tspan class="cls-9" x="126.86" y="144">景、</tspan><tspan class="cls-8" x="166.76" y="144">獨木舟</tspan><tspan x="0" y="192">	</tspan><tspan class="cls-8" x="36.56" y="192">價</tspan><tspan class="cls-9" x="61.76" y="192">位：</tspan><tspan class="cls-8" x="101.66" y="192">1200元-1500元/塊(自備營帳)</tspan></tspan></text><text class="cls-5" transform="translate(1043.75 700.73) scale(0.98 1)">4.<tspan class="cls-6" x="25.6" y="0">	</tspan><tspan x="36.56" y="0">磯崎海水浴場露營區</tspan><tspan class="cls-7"><tspan x="0" y="48">	</tspan><tspan class="cls-8" x="36.56" y="48">位</tspan><tspan class="cls-9" x="61.76" y="48">置：</tspan><tspan class="cls-8" x="101.66" y="48">花蓮縣豐濱區</tspan><tspan x="0" y="96">	</tspan><tspan class="cls-8" x="36.56" y="96">產</tspan><tspan class="cls-9" x="61.76" y="96">品：</tspan><tspan class="cls-8" x="101.66" y="96">露營</tspan><tspan class="cls-9" x="152.06" y="96">位、</tspan><tspan class="cls-8" x="191.96" y="96">屋式帳</tspan><tspan x="0" y="144">	</tspan><tspan class="cls-8" x="36.56" y="144">特</tspan><tspan class="cls-9" x="61.76" y="144">色：</tspan><tspan class="cls-8" x="101.66" y="144">海水浴場 (衝浪聖地</tspan><tspan class="cls-9" x="323.29" y="144">)、</tspan><tspan class="cls-8" x="349.14" y="144">原住民紀念品販賣部</tspan><tspan x="0" y="192">	</tspan><tspan class="cls-8" x="36.56" y="192">價</tspan><tspan class="cls-9" x="61.76" y="192">位：</tspan><tspan class="cls-8" x="101.66" y="192">平台營位300/帳(平假日</tspan><tspan class="cls-9" x="374.03" y="192">)、</tspan><tspan class="cls-8" x="399.88" y="192">屋式帳800/</tspan><tspan class="cls-9" x="535.1" y="192">帳、</tspan><tspan class="cls-8" x="575" y="192">假日1000/帳</tspan></tspan></text><circle class="cls-11" cx="1049.75" cy="376" r="6"/><circle class="cls-11" cx="1049.75" cy="425" r="6"/><circle class="cls-11" cx="1049.75" cy="474" r="6"/><circle class="cls-11" cx="1049.75" cy="522" r="6"/><circle class="cls-11" cx="1049.75" cy="740" r="6"/><circle class="cls-11" cx="1049.75" cy="789" r="6"/><circle class="cls-11" cx="1049.75" cy="838" r="6"/><circle class="cls-11" cx="1049.75" cy="886" r="6"/></svg>