<svg id="圖層_1" data-name="圖層 1" xmlns="http://www.w3.org/2000/svg" viewBox="0 0 1920 1080"><defs><style>.cls-1{font-size:36px;letter-spacing:-0.05em;}.cls-1,.cls-12,.cls-13,.cls-14,.cls-9{font-family:NotoSansCJKtc-DemiLight-B5pc-H, Noto Sans CJK TC;}.cls-2{letter-spacing:-0.22em;}.cls-3{letter-spacing:0.12em;}.cls-4{letter-spacing:0.18em;}.cls-5{letter-spacing:0.02em;}.cls-6{letter-spacing:0.08em;}.cls-7{letter-spacing:0.2em;}.cls-8{fill:none;}.cls-12,.cls-13,.cls-14,.cls-9{font-size:21px;}.cls-9{letter-spacing:0.08em;}.cls-10{letter-spacing:0.2em;}.cls-11{letter-spacing:0.3em;}.cls-12{letter-spacing:0.24em;}.cls-13{letter-spacing:0.14em;}.cls-14{letter-spacing:0.08em;}</style></defs><title>B</title><text class="cls-1" transform="translate(88.01 232.98) scale(0.98 1)">四、<tspan class="cls-2" x="68.4" y="0">	</tspan><tspan class="cls-3" x="68.54" y="0">Ｓ</tspan><tspan class="cls-4" x="108.71" y="0">Ｗ</tspan><tspan class="cls-5" x="151.16" y="0">Ｏ</tspan><tspan class="cls-6" x="187.88" y="0">Ｔ</tspan><tspan class="cls-7" x="226.76" y="0">分析</tspan></text><rect class="cls-8" y="-1" width="1921" height="1081"/><text class="cls-9" transform="translate(85.38 335.16) scale(0.98 1)">Ｓ<tspan class="cls-10"><tspan x="2.67" y="48">1.</tspan><tspan class="cls-11" x="28.27" y="48">	</tspan><tspan x="39.22" y="48">服務設施多元</tspan><tspan x="2.67" y="96">2.</tspan><tspan class="cls-11" x="28.27" y="96">	</tspan><tspan x="39.22" y="96">露營設施多</tspan><tspan x="2.67" y="144">3.</tspan><tspan class="cls-11" x="28.27" y="144">	</tspan><tspan x="39.22" y="144">空間配置不擁擠</tspan></tspan></text><text class="cls-12" transform="translate(88.86 698.73) scale(0.98 1)">Ｗ<tspan class="cls-10"><tspan x="-0.86" y="48">1.</tspan><tspan class="cls-11" x="24.74" y="48">	</tspan><tspan x="35.69" y="48">露營區腹地大需代步工具</tspan><tspan x="-0.86" y="96">2.</tspan><tspan class="cls-11" x="24.74" y="96">	</tspan><tspan x="35.69" y="96">衛浴設備較老舊</tspan><tspan x="-0.86" y="144">3.</tspan><tspan class="cls-11" x="24.74" y="144">	</tspan><tspan x="35.69" y="144">衛浴與洗手台離營區較遠</tspan></tspan></text><text class="cls-13" transform="translate(1043.51 335.16) scale(0.98 1)">Ｏ<tspan class="cls-10"><tspan x="1.26" y="48">1.</tspan><tspan class="cls-11" x="26.86" y="48">	</tspan><tspan x="37.82" y="48">離火車站近</tspan><tspan x="1.26" y="96">2.</tspan><tspan class="cls-11" x="26.86" y="96">	</tspan><tspan x="37.82" y="96">附近觀光資源多</tspan><tspan x="1.26" y="144">3.</tspan><tspan class="cls-11" x="26.86" y="144">	</tspan><tspan x="37.82" y="144">露營人數增加</tspan></tspan></text><text class="cls-14" transform="translate(1042.27 698.73) scale(0.98 1)">Ｔ<tspan class="cls-10"><tspan x="2.52" y="48">1.</tspan><tspan class="cls-11" x="28.12" y="48">	</tspan><tspan x="39.07" y="48">大型車輛較多</tspan><tspan x="2.52" y="96">2.</tspan><tspan class="cls-11" x="28.12" y="96">	</tspan><tspan x="39.07" y="96">附近有福容飯店</tspan><tspan x="2.52" y="144">3.</tspan><tspan class="cls-11" x="28.12" y="144">	</tspan><tspan x="39.07" y="144">露營場數量增加</tspan></tspan></text></svg>