<svg id="圖層_1" data-name="圖層 1" xmlns="http://www.w3.org/2000/svg" viewBox="0 0 1920 1080"><defs><style>.cls-1{font-size:72px;font-family:NotoSansCJKtc-Bold-B5pc-H, Noto Sans CJK TC;letter-spacing:-0.05em;}.cls-1,.cls-20{fill:#333;}.cls-2{letter-spacing:-0.05em;}.cls-3{letter-spacing:-0.1em;}.cls-4{letter-spacing:-0.17em;}.cls-5{letter-spacing:-0.15em;}.cls-6{letter-spacing:-0.12em;}.cls-7{letter-spacing:0.02em;}.cls-8{letter-spacing:-0.04em;}.cls-9{letter-spacing:-0.12em;}.cls-10{letter-spacing:-0.04em;}.cls-11{letter-spacing:-0.05em;}.cls-12{font-size:21px;}.cls-12,.cls-16,.cls-22{font-family:NotoSansCJKtc-DemiLight-B5pc-H, Noto Sans CJK TC;}.cls-12,.cls-15,.cls-22{letter-spacing:0.2em;}.cls-13{letter-spacing:0.3em;}.cls-14{letter-spacing:1.52em;}.cls-16{font-size:36px;letter-spacing:-0.05em;}.cls-17{letter-spacing:-0.09em;}.cls-18{letter-spacing:0.2em;}.cls-19{fill:none;}.cls-21{font-family:AdobeMingStd-Light-B5pc-H, Adobe Ming Std;letter-spacing:1.49em;}</style></defs><title>B</title><text class="cls-1" transform="translate(80.42 141.02) scale(0.98 1)">Ｃ<tspan class="cls-2" x="68.33" y="0">Ｈ</tspan><tspan class="cls-3" x="136.51" y="0">Ａ</tspan><tspan class="cls-4" x="201.53" y="0">Ｐ</tspan><tspan class="cls-5" x="261.51" y="0">Ｔ</tspan><tspan class="cls-6" x="322.35" y="0">Ｅ</tspan><tspan class="cls-7" x="385.56" y="0">Ｒ</tspan><tspan class="cls-8" x="459.29" y="0"> </tspan><tspan class="cls-9" x="472.9" y="0">Ｆ</tspan><tspan class="cls-10" x="535.9" y="0">Ｏ</tspan><tspan class="cls-11" x="604.88" y="0">Ｕ</tspan><tspan class="cls-7" x="673.06" y="0">Ｒ</tspan></text><text class="cls-12" transform="translate(98.01 318.48) scale(0.98 1)">1.<tspan class="cls-13" x="25.6" y="0">	</tspan><tspan x="36.56" y="0">短期活動</tspan><tspan class="cls-14"><tspan x="0" y="48">	</tspan><tspan class="cls-15" x="36.56" y="48">活動獎金:台幣壹萬元整</tspan><tspan x="0" y="96">	</tspan><tspan class="cls-15" x="36.56" y="96">獎品:露營摺疊桌椅市價台幣壹仟伍佰元整</tspan><tspan x="0" y="144">	</tspan><tspan class="cls-15" x="36.56" y="144">超商禮券:市價壹仟元(五張)</tspan></tspan><tspan x="0" y="192">2.</tspan><tspan class="cls-13" x="25.6" y="192">	</tspan><tspan x="36.56" y="192">長期活動</tspan><tspan class="cls-14"><tspan x="0" y="240">	</tspan><tspan class="cls-15" x="36.56" y="240">與廠商以互惠方式合作</tspan></tspan></text><text class="cls-16" transform="translate(88.01 234.98) scale(0.98 1)">一、<tspan class="cls-17" x="68.4" y="0">	</tspan><tspan class="cls-18" x="73.11" y="0">預期活動預算</tspan></text><rect class="cls-19" y="1" width="1921" height="1081"/><circle class="cls-20" cx="104.01" cy="358" r="6"/><circle class="cls-20" cx="104.01" cy="406" r="6"/><circle class="cls-20" cx="104.01" cy="454" r="6"/><circle class="cls-20" cx="104.01" cy="550" r="6"/><text class="cls-12" transform="translate(88.01 778.65) scale(0.98 1)">1.<tspan class="cls-13" x="25.6" y="0">	</tspan><tspan x="36.56" y="0">短期活動</tspan><tspan class="cls-21"><tspan x="0" y="48">	</tspan><tspan class="cls-22" x="36.56" y="48">總成本:16,150元</tspan><tspan x="0" y="96">	</tspan><tspan class="cls-22" x="36.56" y="96">總收益:360,000元</tspan></tspan><tspan x="0" y="144">2.</tspan><tspan class="cls-13" x="25.6" y="144">	</tspan><tspan x="36.56" y="144">長期活動以未來2021年一月份龍門露營人數為預測</tspan><tspan class="cls-21"><tspan x="0" y="192">	</tspan><tspan class="cls-22" x="36.56" y="192">總成本:與廠商以互惠互利方式</tspan><tspan x="0" y="240">	</tspan><tspan class="cls-22" x="36.56" y="240">總收益:450,000元</tspan></tspan></text><text class="cls-16" transform="translate(88.01 695.15) scale(0.98 1)">二、<tspan class="cls-17" x="68.4" y="0">	</tspan><tspan class="cls-18" x="73.11" y="0">預期活動效益</tspan></text><circle class="cls-20" cx="94.01" cy="821" r="6"/><circle class="cls-20" cx="94.01" cy="869" r="6"/><circle class="cls-20" cx="94.01" cy="965" r="6"/><circle class="cls-20" cx="94.01" cy="1013" r="6"/></svg>