<svg id="圖層_1" data-name="圖層 1" xmlns="http://www.w3.org/2000/svg" viewBox="0 0 1920 1080"><defs><style>.cls-1{font-size:112.25px;letter-spacing:0.07em;}.cls-1,.cls-8{fill:#002060;}.cls-1,.cls-7{font-family:NotoSansCJKtc-Medium-B5pc-H, Noto Sans CJK TC;}.cls-2{fill:#0070c0;}.cls-2,.cls-3,.cls-5{font-size:91.84px;letter-spacing:0.07em;}.cls-3,.cls-4{fill:#000;}.cls-4{font-size:76.54px;letter-spacing:0.08em;}.cls-5{fill:#7f7f7f;}.cls-6{fill:#00b0ee;font-size:81.64px;letter-spacing:0.08em;}.cls-7{font-size:36px;letter-spacing:0.08em;}.cls-9{fill:#d9d9d9;}.cls-10,.cls-11,.cls-12{fill:none;stroke-miterlimit:8;stroke-width:6px;}.cls-10{stroke:#0070c0;}.cls-11{stroke:#a6a6a6;}.cls-12{stroke:#000;}</style></defs><title>貨櫃屋為觀光空間帶來的影響</title><text class="cls-1" transform="translate(403.38 501.78)">貨<tspan class="cls-2" x="120.67" y="0">櫃</tspan><tspan class="cls-3" x="219.4" y="0">屋</tspan><tspan class="cls-4" x="318.13" y="0">為</tspan><tspan class="cls-5" x="400.41" y="0">觀光</tspan><tspan class="cls-6" x="597.87" y="0">空間</tspan><tspan class="cls-4" x="773.4" y="0">帶來的影響</tspan></text><text class="cls-7" transform="translate(743.43 809.68)">報告者 : A105253014 張明雍<tspan x="58.98" y="96">指導教授 : 林長郁 老師</tspan><tspan x="51.52" y="192">報告日期 : 2020/05/06</tspan></text><polygon class="cls-8" points="1521.99 581.19 1741.46 581.73 1856.78 813.77 1724.67 989.03 1505.19 988.5 1389.87 756.45 1521.99 581.19"/><polygon points="-1 0 -1 124.25 187.54 124.7 283.81 0 -1 0"/><polygon class="cls-9" points="573.85 0 309.89 0 204.75 138.36 320.06 368.54 539.54 369.07 671.65 195.23 573.85 0"/><polygon class="cls-10" points="-1 143.48 -1 550.83 169.57 551.25 301.69 375.99 186.37 143.94 -1 143.48"/><polygon class="cls-11" points="1758.14 1078 1723.49 1008.27 1504.01 1007.74 1451.05 1078 1758.14 1078"/><polygon class="cls-12" points="1920 1080 1920 825.67 1873.98 825.56 1741.87 1000.82 1781.22 1080 1920 1080"/></svg>