<svg id="圖層_1" data-name="圖層 1" xmlns="http://www.w3.org/2000/svg" viewBox="0 0 1920 1080"><defs><style>.cls-1{fill:#fffae4;}.cls-2{font-size:120px;fill:#333;font-family:HelveticaNeue-BoldItalic, Helvetica Neue;font-weight:700;font-style:italic;letter-spacing:0.1em;}.cls-3{font-size:30px;fill:#4d4d4d;font-family:NotoSansCJKtc-Regular-B5pc-H, Noto Sans CJK TC;}.cls-4{letter-spacing:0.25em;}.cls-5{letter-spacing:-0.23em;}.cls-6{letter-spacing:0.23em;}.cls-7{fill:#ffb601;}.cls-8{fill:none;}.cls-9{fill:#ff0;}.cls-10{fill:#00b0f0;}</style></defs><title>嘉義市政府</title><path class="cls-1" d="M619.23,794.52c2.16-15.55-24.69-37-33.56-57C559.43,678.05,672.13,588.31,678,585.23c.07,0,1-.49,2.17-1a19.37,19.37,0,0,1,2.79-1.11h0l7.8-1.8s1.13-.17,2.2-.29c187.69-20.78,527-24.76,527-24.76s324-4.39,486.63,16.78c11.66,1.52,39.27,6.15,70.48,13.42,27.87,6.5,42,9.88,53.7,16.78,5,3,46.58,28.32,50.34,67.13,4.29,44.22-42.88,81.36-47,124.17-.66,6.94-1.86,19.46,3.36,33.56,4.06,11,9,13.27,10.07,20.14,2.82,18.08-24.59,36.5-30.21,40.27-59.38,39.92-443.67,35.93-537,36.92-181.22,1.92-362.48-2.49-543.69,0-16.27.22-66.09,1-94-30.2-19.37-21.69-27.69-58.28-26.85-70.48,0-.35.29-4.07.76-9C617.76,804,619.08,795.65,619.23,794.52Z"/><text class="cls-2" transform="translate(100.92 388.84)">BEGINNING</text><text class="cls-3" transform="translate(733.56 638.4)"><tspan class="cls-4">2019年6月</tspan><tspan class="cls-4" x="0" y="70">我通過了嘉義</tspan><tspan class="cls-5" x="225" y="70">市</tspan><tspan class="cls-6" x="248.07" y="70">「</tspan><tspan class="cls-4" x="285" y="70">大專青年公部門暑期工</tspan><tspan class="cls-6" x="660" y="70">讀</tspan><tspan class="cls-5" x="696.93" y="70">」</tspan><tspan class="cls-4" x="720" y="70">的面試並且錄</tspan><tspan x="945" y="70">取。</tspan><tspan class="cls-4" x="0" y="140">2019年7月1</tspan><tspan x="219.9" y="140">日，</tspan><tspan class="cls-4" x="279.9" y="140">回到自己的家鄉嘉義</tspan><tspan x="617.4" y="140">市，</tspan><tspan class="cls-4" x="677.4" y="140">正式開始在嘉義市政府</tspan><tspan class="cls-4" x="0" y="210">都市發展處為期兩個月的實習生</tspan><tspan x="525" y="210">活，</tspan><tspan class="cls-4" x="585" y="210">開始了我的市政府大冒</tspan><tspan x="960" y="210">險。</tspan></text><path class="cls-7" d="M1237.18,948l18.35-27.45a3.55,3.55,0,0,0-3-5.53h-36.69a3.55,3.55,0,0,0-3,5.53L1231.27,948A3.55,3.55,0,0,0,1237.18,948Z"/><text class="cls-2" transform="translate(100.92 202.13)">CHAPTER 1</text><rect class="cls-8" x="3" y="2" width="1916" height="1078"/><rect class="cls-9" x="639.44" y="536.53" width="147.41" height="64.4" rx="13.39" transform="translate(-67.5 96.9) rotate(-7.42)"/><path class="cls-10" d="M689.65,580.47c2.81.53,5.77,1.12,7.69,1.62l-2.71,2.52a83.48,83.48,0,0,0-8.67-2.13l1.5-1.73-7.89,1,2.26,1.18a38.47,38.47,0,0,1-8.45,4.48,19.25,19.25,0,0,0-2.62-2,37.61,37.61,0,0,0,7.17-3.47l-3.89.5-1.22-9.36,19.58-2.55,1.22,9.36Zm5.7-11.16-25.82,3.36-.37-2.84L695,566.47Zm-20.41-4.73-4.88.63-.33-2.52,4.88-.64-.23-1.76,3.29-.43.23,1.76,6.5-.84-.23-1.76,3.46-.45.23,1.76,4.85-.64.33,2.53-4.85.63.46,3.49-13.26,1.73Zm1.62,11.76,4.65-.6-.18-1.37-4.65.61Zm.45,3.47,4.65-.61-.17-1.36-4.66.6Zm1.22-15.66.17,1.28,6.5-.85-.17-1.28Zm11.06,9.15-4.91.64.18,1.36,4.91-.64Zm.45,3.46-4.91.64.18,1.36,4.91-.64Z"/><path class="cls-10" d="M709.79,562.69a36.14,36.14,0,0,1-2.67,6.27l1.79,13.73-3.41.45-1.29-9.91a24,24,0,0,1-2.39,2.45,26.16,26.16,0,0,0-2-3,22.26,22.26,0,0,0,6.16-9.46l-6.24.81-.42-3.23,7.69-1c.29-1.31.53-2.58.68-3.84l3.63.39c-.16,1-.38,1.95-.6,3l13.8-1.79.42,3.23ZM727,573.15l-6.73.88.47,3.55c.22,1.7,0,2.62-1.1,3.29a15.53,15.53,0,0,1-5.08,1.15,12.54,12.54,0,0,0-1.36-3.12c1.43-.1,3.11-.31,3.56-.37s.61-.23.56-.6l-.45-3.46-7.21.94-.41-3.15,7.21-.94-.26-2a19.49,19.49,0,0,0,2.42-2.46l-7.69,1-.39-3,10.78-1.4.68-.3,2.36,1.46a35.48,35.48,0,0,1-4.64,5.19l.14,1.08,6.73-.88Z"/><path class="cls-10" d="M754.43,569.66a14,14,0,0,1-4.53,4.46,79.88,79.88,0,0,0,8.46-.41,12.51,12.51,0,0,0-1.31,2.8,57,57,0,0,1-11.53-.15,63.39,63.39,0,0,1-11.94,3.2,9.12,9.12,0,0,0-1.43-2.55,71.79,71.79,0,0,0,8.44-1.74,18,18,0,0,1-3.69-1.68l.91-.58-4.74.62-.29-2.24,19-2.48.55-.22ZM736,556.11l-6.13.79-.32-2.44,6.13-.8-.17-1.33,3.35-.44.17,1.34,2.73-.36.31,2.44-2.72.36.12.94-3.35.43Zm-3.69,9.77,22.76-3,.6,4.57-22.76,3Zm17.59-3-.7-5.42-13.06,1.7.71,5.43-3,.38-.93-7.09,19.13-2.49.93,7.09Zm-14,5.56,3.32-.43-.18-1.37-3.32.44Zm1.27-6,11.83-1.54.2,1.53L737.3,564Zm11.72-2.42L737,561.6l-.2-1.53,11.81-1.54Zm-8.43,12.61a17.65,17.65,0,0,0,4.65,1.1,16,16,0,0,0,4.09-2.23Zm1.85-5.06,3.35-.43-.18-1.37-3.34.44Zm3.13-12.73-2.46.32-.32-2.44,2.47-.32-.18-1.33,3.38-.44.17,1.33,6.28-.82.31,2.44-6.27.82.12.94-3.37.44Zm3.31,11.89,3.47-.45L752,565l-3.46.45Z"/></svg>