<svg id="圖層_1" data-name="圖層 1" xmlns="http://www.w3.org/2000/svg" viewBox="0 0 1920 1080"><defs><style>.cls-1{font-size:120px;fill:#333;font-family:HelveticaNeue-BoldItalic, Helvetica Neue;font-weight:700;font-style:italic;letter-spacing:0.1em;}.cls-2{letter-spacing:-0.01em;}.cls-3{letter-spacing:0.1em;}.cls-4{fill:none;}.cls-5{fill:#fffae4;}.cls-6{font-size:30px;fill:#4d4d4d;font-family:NotoSansCJKtc-Regular-B5pc-H, Noto Sans CJK TC;}.cls-7{letter-spacing:0.25em;}.cls-8{fill:#ffb601;}.cls-9{fill:#ff0;}.cls-10{fill:#00b0f0;}</style></defs><title>嘉義市政府</title><text class="cls-1" transform="translate(106.92 396.84)">DAI<tspan class="cls-2" x="242.64" y="0">L</tspan><tspan class="cls-3" x="310.2" y="0">Y WORK</tspan></text><rect class="cls-4" x="1" y="1" width="1924" height="1078"/><path class="cls-5" d="M554,839.52c2.15-15.55-24.7-37-33.56-57-26.25-59.42,86.46-149.16,92.37-152.24.06,0,1-.49,2.17-1a19.66,19.66,0,0,1,2.78-1.11h0l7.81-1.8s1.12-.17,2.19-.29c187.7-20.78,527-24.76,527-24.76s324-4.39,486.64,16.78c11.65,1.52,39.27,6.15,70.48,13.42,27.86,6.5,42,9.88,53.69,16.78,5,3,46.58,28.32,50.34,67.13,4.29,44.22-42.88,81.36-47,124.17-.67,6.94-1.87,19.46,3.36,33.56,4.06,11,9,13.27,10.06,20.14,2.83,18.08-24.58,36.5-30.2,40.27-59.39,39.92-443.68,35.93-537,36.92-181.22,1.92-362.48-2.49-543.69,0-16.26.22-66.08,1-94-30.2-19.37-21.69-27.68-58.28-26.85-70.48,0-.35.29-4.07.76-9C552.48,849,553.8,840.65,554,839.52Z"/><text class="cls-6" transform="translate(637.29 731.4)"><tspan class="cls-7">都市發展處是由都市計畫</tspan><tspan x="412.5" y="0">科、</tspan><tspan class="cls-7" x="472.5" y="0">都市更新科以及建築管理科三個單位所</tspan><tspan class="cls-7" x="0" y="70">組</tspan><tspan x="37.5" y="70">成。</tspan><tspan class="cls-7" x="97.5" y="70">我被分配到的單位是都市計畫</tspan><tspan x="585" y="70">科，</tspan><tspan class="cls-7" x="645" y="70">一開始基本上都在協助民眾</tspan><tspan class="cls-7" x="0" y="140">辦理申請土地使用分區證</tspan><tspan x="412.5" y="140">明，</tspan><tspan class="cls-7" x="472.5" y="140">隨後進行建檔與校圖等文書作業處</tspan><tspan x="1035" y="140">理。</tspan></text><path class="cls-8" d="M1171.91,993l18.34-27.45a3.55,3.55,0,0,0-3-5.53h-36.69a3.55,3.55,0,0,0-3,5.53L1166,993A3.55,3.55,0,0,0,1171.91,993Z"/><rect class="cls-9" x="574.17" y="581.53" width="147.41" height="64.4" rx="13.39" transform="matrix(0.99, -0.13, 0.13, 0.99, -73.86, 88.84)"/><path class="cls-10" d="M624.37,625.47c2.81.53,5.78,1.12,7.69,1.62l-2.7,2.52a83.75,83.75,0,0,0-8.68-2.13l1.51-1.73-7.89,1,2.26,1.18a38.7,38.7,0,0,1-8.45,4.48,19.89,19.89,0,0,0-2.62-2,37.8,37.8,0,0,0,7.16-3.47l-3.88.5-1.22-9.36,19.58-2.55,1.22,9.36Zm5.71-11.16-25.83,3.36-.37-2.84,25.83-3.36Zm-20.42-4.73-4.88.63-.33-2.52,4.88-.64-.23-1.76,3.3-.43.23,1.76,6.49-.84L618.9,604l3.46-.45.23,1.76,4.85-.64.33,2.53-4.85.63.45,3.49-13.25,1.73Zm1.62,11.76,4.66-.6-.18-1.37-4.66.61Zm.45,3.47,4.66-.61-.18-1.36-4.65.6ZM613,609.15l.17,1.28,6.5-.85-.17-1.28ZM624,618.3l-4.91.64.18,1.36,4.9-.64Zm.45,3.46-4.91.64.18,1.36,4.91-.64Z"/><path class="cls-10" d="M644.52,607.69a35.42,35.42,0,0,1-2.68,6.27l1.79,13.73-3.41.45-1.29-9.91a24,24,0,0,1-2.39,2.45,26.06,26.06,0,0,0-2-3,22.36,22.36,0,0,0,6.16-9.46l-6.25.81-.42-3.23,7.69-1c.29-1.31.53-2.58.68-3.84l3.63.39c-.15,1-.38,1.95-.59,3l13.79-1.79.42,3.23Zm17.18,10.46L655,619l.46,3.55c.22,1.7.05,2.62-1.1,3.29a15.46,15.46,0,0,1-5.07,1.15,12.92,12.92,0,0,0-1.36-3.12c1.43-.1,3.1-.31,3.56-.37s.6-.23.55-.6l-.45-3.46-7.2.94-.41-3.15,7.2-.94-.26-2a20.24,20.24,0,0,0,2.43-2.46l-7.69,1-.4-3,10.78-1.4.69-.3,2.35,1.46a36,36,0,0,1-4.63,5.19l.14,1.08,6.72-.88Z"/><path class="cls-10" d="M689.15,614.66a14.07,14.07,0,0,1-4.52,4.46,80.13,80.13,0,0,0,8.46-.41,12.51,12.51,0,0,0-1.31,2.8,57.16,57.16,0,0,1-11.54-.15,63.49,63.49,0,0,1-11.93,3.2,9.37,9.37,0,0,0-1.43-2.55,71.61,71.61,0,0,0,8.43-1.74,18,18,0,0,1-3.68-1.68l.9-.58-4.74.62-.29-2.24,19-2.48.55-.22Zm-18.44-13.55-6.13.79-.32-2.44,6.13-.8-.18-1.33,3.35-.44.18,1.34,2.72-.36.32,2.44-2.73.36.13.94-3.35.43ZM667,610.88l22.76-3,.59,4.57-22.76,3Zm17.59-3-.71-5.42-13,1.7.7,5.43-3,.38-.92-7.09,19.13-2.49.92,7.09Zm-14.06,5.56,3.32-.43-.17-1.37-3.32.44Zm1.28-6,11.83-1.54.2,1.53L672,609Zm11.71-2.42-11.8,1.54-.2-1.53,11.81-1.54Zm-8.42,12.61a17.47,17.47,0,0,0,4.64,1.1,15.88,15.88,0,0,0,4.1-2.23Zm1.85-5.06,3.35-.43-.18-1.37-3.35.44Zm3.13-12.73-2.47.32-.32-2.44,2.47-.32-.17-1.33,3.37-.44.18,1.33,6.27-.82.32,2.44-6.27.82.12.94-3.38.44Zm3.31,11.89,3.46-.45-.18-1.36-3.46.45Z"/><text class="cls-1" transform="translate(106.92 202.13)">CHAPTER 2</text></svg>