<svg id="圖層_1" data-name="圖層 1" xmlns="http://www.w3.org/2000/svg" viewBox="0 0 1920 1080"><defs><style>.cls-1{font-size:120px;fill:#333;font-family:HelveticaNeue-BoldItalic, Helvetica Neue;font-weight:700;font-style:italic;letter-spacing:0.1em;}.cls-2{letter-spacing:-0.01em;}.cls-3{letter-spacing:0.1em;}.cls-4{fill:none;}.cls-5{fill:#fffae4;}.cls-6{font-size:30px;fill:#4d4d4d;font-family:NotoSansCJKtc-Regular-B5pc-H, Noto Sans CJK TC;}.cls-7{letter-spacing:0.25em;}.cls-8{fill:#ffb601;}.cls-9{fill:#ff0;}.cls-10{fill:#00b0f0;}</style></defs><title>嘉義市政府</title><text class="cls-1" transform="translate(99.52 396.19)">DAI<tspan class="cls-2" x="242.64" y="0">L</tspan><tspan class="cls-3" x="310.2" y="0">Y WORK</tspan></text><rect class="cls-4" x="-6.4" y="0.35" width="1924" height="1078"/><path class="cls-5" d="M546.56,838.87c2.16-15.55-24.69-37-33.56-57-26.25-59.42,86.46-149.16,92.37-152.24.06,0,1-.49,2.17-1a20.62,20.62,0,0,1,2.79-1.11h0l7.8-1.8s1.13-.17,2.2-.29c187.69-20.78,527-24.76,527-24.76s324-4.39,486.64,16.78c11.65,1.52,39.27,6.16,70.48,13.43,27.86,6.49,42,9.87,53.69,16.78,5,3,46.58,28.31,50.35,67.12,4.28,44.23-42.88,81.37-47,124.17-.66,7-1.86,19.46,3.36,33.57,4.06,11,9,13.26,10.07,20.13,2.82,18.08-24.59,36.5-30.21,40.28-59.39,39.91-443.68,35.92-537,36.91-181.22,1.92-362.47-2.49-543.69,0-16.26.23-66.08,1-94-30.2-19.37-21.68-27.68-58.28-26.85-70.48,0-.35.29-4.06.76-9C545.08,848.38,546.4,840,546.56,838.87Z"/><text class="cls-6" transform="translate(632.89 709.75)"><tspan class="cls-7">後來與府內各單位配</tspan><tspan x="337.5" y="0">合，</tspan><tspan class="cls-7" x="397.5" y="0">開始進行違反土地使用分區的工廠及店家之</tspan><tspan class="cls-7" x="0" y="70">裁</tspan><tspan x="37.5" y="70">罰。</tspan><tspan class="cls-7" x="97.5" y="70">我的工作是將違規的業主造</tspan><tspan x="547.5" y="70">冊，</tspan><tspan class="cls-7" x="607.5" y="70">並依據其違反法條進行罰單的</tspan><tspan class="cls-7" x="0" y="140">開</tspan><tspan x="37.5" y="140">列。</tspan><tspan class="cls-7" x="97.5" y="140">一張就是六萬</tspan><tspan x="322.5" y="140">塊，</tspan><tspan class="cls-7" x="382.5" y="140">好貴阿!!(結果這段時間一直接到業主和議員</tspan><tspan class="cls-7"><tspan x="0" y="210">的抗議電話……)</tspan></tspan></text><path class="cls-8" d="M1164.51,992.34l18.35-27.46a3.56,3.56,0,0,0-3-5.53h-36.69a3.56,3.56,0,0,0-3,5.53l18.35,27.46A3.56,3.56,0,0,0,1164.51,992.34Z"/><rect class="cls-9" x="566.77" y="580.88" width="147.41" height="64.4" rx="13.39" transform="translate(-73.84 87.88) rotate(-7.42)"/><path class="cls-10" d="M617,624.82c2.81.53,5.77,1.12,7.68,1.62L622,629a86.41,86.41,0,0,0-8.68-2.13l1.51-1.73-7.89,1,2.26,1.18a38.7,38.7,0,0,1-8.45,4.48,19.89,19.89,0,0,0-2.62-2,36.92,36.92,0,0,0,7.16-3.47l-3.88.5-1.22-9.36,19.58-2.55L621,624.3Zm5.7-11.16L596.85,617l-.37-2.84,25.83-3.36Zm-20.42-4.73-4.88.64-.33-2.53,4.89-.64-.23-1.76,3.29-.42.23,1.75,6.5-.84-.23-1.76,3.46-.45.23,1.76L620,604l.33,2.53-4.85.63.45,3.49-13.25,1.73Zm1.62,11.77,4.66-.61-.18-1.36-4.65.6Zm.45,3.46,4.66-.61-.18-1.36-4.65.61Zm1.23-15.66.16,1.28,6.5-.85-.16-1.28Zm11.06,9.15-4.91.64.18,1.36,4.91-.64Zm.45,3.46-4.91.64.18,1.36,4.91-.63Z"/><path class="cls-10" d="M637.12,607a35.42,35.42,0,0,1-2.68,6.27L636.23,627l-3.4.45-1.29-9.91a25.21,25.21,0,0,1-2.4,2.45,26.94,26.94,0,0,0-2-3,22.36,22.36,0,0,0,6.16-9.46l-6.25.82-.42-3.24,7.69-1c.29-1.31.53-2.58.69-3.84l3.63.39c-.16,1-.38,2-.6,3l13.79-1.8.42,3.23ZM654.3,617.5l-6.73.88.46,3.55c.22,1.7.06,2.62-1.1,3.29a15.2,15.2,0,0,1-5.07,1.15,12.85,12.85,0,0,0-1.36-3.11c1.43-.1,3.1-.32,3.56-.38s.6-.22.56-.59l-.45-3.47-7.21.94-.41-3.15,7.2-.94-.25-2a20.08,20.08,0,0,0,2.42-2.45l-7.69,1-.4-3,10.79-1.4.68-.29,2.35,1.45a35.4,35.4,0,0,1-4.63,5.19l.14,1.08,6.73-.88Z"/><path class="cls-10" d="M681.76,614a14,14,0,0,1-4.53,4.46,77.42,77.42,0,0,0,8.46-.41,12.51,12.51,0,0,0-1.31,2.8,57.94,57.94,0,0,1-11.54-.14,64.83,64.83,0,0,1-11.93,3.2,9.28,9.28,0,0,0-1.43-2.56,73.74,73.74,0,0,0,8.43-1.73,18,18,0,0,1-3.68-1.69l.91-.58-4.74.62-.3-2.24,19-2.48.55-.21Zm-18.45-13.55-6.13.8-.32-2.45L663,598l-.17-1.34,3.34-.43.18,1.33,2.72-.35.32,2.44-2.72.35.12.94-3.35.43Zm-3.69,9.77,22.76-3,.59,4.57-22.76,3Zm17.59-3-.71-5.42-13,1.7.7,5.42-3,.39-.92-7.1,19.13-2.49.92,7.09Zm-14.05,5.55,3.32-.43L666.3,611l-3.32.43Zm1.27-6,11.83-1.54.2,1.53-11.83,1.55Zm11.72-2.42L664.34,606l-.2-1.53L676,602.88ZM667.72,617a18.09,18.09,0,0,0,4.64,1.09,15.88,15.88,0,0,0,4.1-2.23Zm1.85-5.07,3.35-.43-.18-1.36-3.35.43Zm3.13-12.73-2.47.32-.32-2.44,2.47-.32-.17-1.33,3.38-.44.17,1.33,6.27-.81.32,2.44-6.27.81.12.94-3.38.44Zm3.31,11.9,3.46-.46-.17-1.36-3.47.45Z"/><text class="cls-1" transform="translate(99.52 201.48)">CHAPTER 3</text></svg>