<svg id="圖層_1" data-name="圖層 1" xmlns="http://www.w3.org/2000/svg" viewBox="0 0 1920 1080"><defs><style>.cls-1{font-size:123.73px;font-family:NotoSansCJKtc-Bold-B5pc-H, Noto Sans CJK TC;letter-spacing:0.1em;}.cls-1,.cls-13{fill:#333;}.cls-2{fill:none;}.cls-3{fill:#fffae4;}.cls-4{font-size:30px;fill:#4d4d4d;font-family:NotoSansCJKtc-Regular-B5pc-H, Noto Sans CJK TC;}.cls-5{letter-spacing:0.25em;}.cls-6{letter-spacing:0.24em;}.cls-7{letter-spacing:-0.23em;}.cls-8{letter-spacing:0.23em;}.cls-9{letter-spacing:0em;}.cls-10{fill:#ffb601;}.cls-11{fill:#ff0;}.cls-12{fill:#00b0f0;}.cls-13{font-size:120px;font-family:HelveticaNeue-BoldItalic, Helvetica Neue;font-weight:700;font-style:italic;letter-spacing:0.1em;}</style></defs><title>嘉義市政府</title><text class="cls-1" transform="matrix(0.97, 0, -0.17, 0.98, 95.58, 397.18)">會議參與</text><rect class="cls-2" x="-2.78" y="-3.08" width="1924" height="1078"/><path class="cls-3" d="M550.17,826.29c2.16-16.63-24.69-39.56-33.56-61C490.37,701.7,603.07,605.71,609,602.42c.07,0,1-.53,2.17-1.11a19.5,19.5,0,0,1,2.79-1.19h0l7.8-1.92s1.13-.18,2.2-.31c187.69-22.23,527-26.49,527-26.49s323.95-4.69,486.63,18c11.66,1.63,39.27,6.59,70.48,14.36,27.87,6.95,42,10.57,53.7,17.95,5,3.19,46.58,30.29,50.34,71.8,4.29,47.31-42.88,87-47,132.83-.67,7.43-1.87,20.81,3.35,35.9,4.06,11.74,9,14.19,10.07,21.54,2.82,19.34-24.59,39-30.21,43.08-59.38,42.7-443.67,38.43-537,39.49-181.22,2.05-362.48-2.66-543.69,0-16.26.24-66.09,1.08-94-32.31C554.3,910.8,546,871.65,546.82,858.6c0-.38.29-4.35.76-9.62C548.7,836.46,550,827.5,550.17,826.29Z"/><text class="cls-4" transform="translate(633.5 657.4)"><tspan class="cls-5">有大型會議(</tspan><tspan class="cls-6" x="205.14" y="0">ex</tspan><tspan class="cls-5" x="251.22" y="0">.都市計</tspan><tspan x="379.56" y="0">畫、</tspan><tspan class="cls-5" x="439.56" y="0">都市設計審議)要舉行</tspan><tspan x="794.7" y="0">時，</tspan><tspan class="cls-5" x="854.7" y="0">我就會去協助進</tspan><tspan class="cls-5" x="0" y="70">行場</tspan><tspan x="75" y="70">佈，</tspan><tspan class="cls-5" x="135" y="70">然後在一旁旁</tspan><tspan x="360" y="70">聽，</tspan><tspan class="cls-5" x="420" y="70">從中學習政府對政</tspan><tspan x="720" y="70">府、</tspan><tspan class="cls-5" x="780" y="70">政府對民間的合作模</tspan><tspan x="0" y="140">式。</tspan><tspan class="cls-5" x="60" y="140">實習期間參與過印象最深刻的會議</tspan><tspan class="cls-7" x="622.5" y="140">是</tspan><tspan class="cls-8" x="645.57" y="140">「</tspan><tspan class="cls-5" x="682.5" y="140">嘉義市鐵路高架</tspan><tspan class="cls-8" x="945" y="140">化</tspan><tspan class="cls-7" x="981.93" y="140">」</tspan><tspan class="cls-5" x="1005" y="140">的會議</tspan><tspan x="-7.5" y="210">，</tspan><tspan class="cls-5" x="22.5" y="210">這個計畫影響的層面極</tspan><tspan x="397.5" y="210">廣，</tspan><tspan class="cls-5" x="457.5" y="210">包含嘉義的交</tspan><tspan x="682.5" y="210">通、</tspan><tspan class="cls-5" x="742.5" y="210">土地使用分區的規劃甚</tspan><tspan class="cls-5"><tspan x="0" y="280">至是觀光發展等</tspan><tspan class="cls-9" x="262.5" y="280">等。</tspan></tspan></text><path class="cls-10" d="M1168.13,988.91l18.34-27.45a3.56,3.56,0,0,0-3-5.54h-36.69a3.56,3.56,0,0,0-3,5.54l18.34,27.45A3.56,3.56,0,0,0,1168.13,988.91Z"/><rect class="cls-11" x="575.38" y="543.46" width="147.41" height="64.4" rx="13.39" transform="translate(-68.93 88.68) rotate(-7.42)"/><path class="cls-12" d="M625.59,587.39c2.81.53,5.77,1.13,7.69,1.63l-2.71,2.51a86.13,86.13,0,0,0-8.67-2.13l1.5-1.72-7.88,1,2.26,1.17a38.93,38.93,0,0,1-8.45,4.48,20,20,0,0,0-2.63-2,37,37,0,0,0,7.17-3.47l-3.89.51-1.22-9.37,19.58-2.55,1.22,9.37Zm5.7-11.16-25.82,3.37-.37-2.84,25.82-3.37Zm-20.41-4.73-4.88.64-.33-2.53,4.88-.63-.23-1.76,3.29-.43.23,1.76,6.5-.85-.23-1.76,3.46-.45.23,1.76,4.86-.63.32,2.52-4.85.64.46,3.49L611.33,575Zm1.62,11.77,4.65-.61L617,581.3l-4.65.61Zm.45,3.46,4.65-.61-.17-1.36-4.66.61Zm1.22-15.66.17,1.28,6.5-.85-.17-1.27Zm11.06,9.15-4.91.64.18,1.37,4.91-.64Zm.45,3.47-4.91.64.18,1.36,4.91-.64Z"/><path class="cls-12" d="M645.73,569.62a36,36,0,0,1-2.67,6.26l1.79,13.74-3.41.44-1.29-9.9a23.91,23.91,0,0,1-2.39,2.44,27.29,27.29,0,0,0-2-3,22.4,22.4,0,0,0,6.15-9.46l-6.24.81-.42-3.24,7.69-1c.29-1.31.53-2.58.68-3.84l3.63.39c-.16,1-.38,2-.59,3l13.79-1.8.42,3.24Zm17.18,10.46-6.72.87.46,3.55c.22,1.7.05,2.62-1.1,3.29a15.27,15.27,0,0,1-5.08,1.15,12.47,12.47,0,0,0-1.36-3.11c1.43-.1,3.11-.32,3.56-.38s.61-.22.56-.59l-.45-3.46-7.21.94-.41-3.15,7.21-.94-.26-2a18.74,18.74,0,0,0,2.42-2.45l-7.69,1-.39-3,10.78-1.41.68-.29,2.36,1.45a35.54,35.54,0,0,1-4.64,5.2l.14,1.07,6.73-.87Z"/><path class="cls-12" d="M690.37,576.59a14.08,14.08,0,0,1-4.53,4.45,74.89,74.89,0,0,0,8.46-.41,12.72,12.72,0,0,0-1.31,2.8,57.1,57.1,0,0,1-11.53-.14,64.94,64.94,0,0,1-11.94,3.2,9,9,0,0,0-1.43-2.56,73.48,73.48,0,0,0,8.44-1.73,18,18,0,0,1-3.69-1.68l.91-.58-4.74.61-.29-2.24,19-2.48.55-.21ZM671.92,563l-6.13.8-.32-2.44,6.13-.8-.17-1.33,3.35-.44.17,1.33,2.73-.35.32,2.44-2.73.35.12.94L672,564Zm-3.69,9.77,22.76-3,.6,4.57-22.76,3Zm17.59-3-.7-5.42-13.06,1.7.71,5.42-3,.39-.93-7.1L688,562.32l.93,7.1Zm-14.05,5.55,3.32-.43-.18-1.36-3.32.43Zm1.27-6,11.84-1.54.2,1.53-11.84,1.54ZM684.76,567,673,568.52l-.2-1.53,11.8-1.54Zm-8.43,12.61a18.05,18.05,0,0,0,4.65,1.1,16.3,16.3,0,0,0,4.09-2.24Zm1.85-5.06,3.35-.44-.18-1.36-3.34.44Zm3.14-12.73-2.47.32-.32-2.44,2.47-.32-.18-1.34,3.38-.44.17,1.34,6.28-.82.31,2.44-6.27.82.12.93-3.37.44Zm3.31,11.89,3.46-.45-.18-1.36-3.46.45Z"/><text class="cls-13" transform="translate(103.13 198.05)">CHAPTER 5</text></svg>