<svg id="圖層_1" data-name="圖層 1" xmlns="http://www.w3.org/2000/svg" viewBox="0 0 1920 1080"><defs><style>.cls-1{font-size:123.73px;font-family:NotoSansCJKtc-Bold-B5pc-H, Noto Sans CJK TC;letter-spacing:0.1em;}.cls-1,.cls-12{fill:#333;}.cls-2{fill:none;}.cls-3{fill:#fffae4;}.cls-4{font-size:30px;fill:#4d4d4d;font-family:NotoSansCJKtc-Regular-B5pc-H, Noto Sans CJK TC;}.cls-5{letter-spacing:0.25em;}.cls-6{letter-spacing:-0.23em;}.cls-7{letter-spacing:0.23em;}.cls-8{letter-spacing:-0.48em;}.cls-9{fill:#ffb601;}.cls-10{fill:#ff0;}.cls-11{fill:#00b0f0;}.cls-12{font-size:120px;font-family:HelveticaNeue-BoldItalic, Helvetica Neue;font-weight:700;font-style:italic;letter-spacing:0.1em;}</style></defs><title>嘉義市政府</title><text class="cls-1" transform="matrix(0.97, 0, -0.17, 0.98, 96.16, 399.58)">鐵高工作坊</text><rect class="cls-2" x="-2.21" y="-0.67" width="1924" height="1078"/><path class="cls-3" d="M550.75,839.91c2.16-15.3-24.69-36.4-33.56-56.15-26.25-58.49,86.46-146.82,92.37-149.85.06,0,1-.49,2.17-1a21.28,21.28,0,0,1,2.78-1.09h0l7.8-1.77s1.13-.17,2.2-.29c187.69-20.45,527-24.37,527-24.37s324-4.32,486.64,16.52c11.65,1.49,39.27,6.06,70.48,13.21,27.86,6.39,42,9.73,53.69,16.52,5,2.93,46.58,27.87,50.35,66.07,4.28,43.53-42.88,80.09-47,122.22-.66,6.83-1.87,19.15,3.36,33,4.06,10.8,9,13.06,10.07,19.82,2.82,17.79-24.59,35.92-30.21,39.64-59.39,39.29-443.68,35.36-537,36.34-181.22,1.88-362.47-2.45-543.69,0-16.26.22-66.08,1-94-29.73-19.37-21.35-27.68-57.37-26.85-69.38,0-.34.29-4,.76-8.85C549.27,849.27,550.59,841,550.75,839.91Z"/><text class="cls-4" transform="translate(634.08 701.8)"><tspan class="cls-5">後來在因緣際會之下參與<tspan class="cls-6" x="412.5" y="0">了</tspan><tspan class="cls-7" x="435.57" y="0">「</tspan><tspan x="472.5" y="0">鐵路高架化-鐵路邊ㄟ所</tspan><tspan class="cls-7" x="865.41" y="0">在</tspan><tspan class="cls-6" x="902.34" y="0">」</tspan><tspan x="925.41" y="0">田野調查工</tspan></tspan><tspan class="cls-5" x="0" y="70">作</tspan><tspan x="37.5" y="70">坊，</tspan><tspan class="cls-5" x="97.5" y="70">利用周末的時間</tspan><tspan class="cls-6" x="360" y="70">到</tspan><tspan class="cls-7" x="383.07" y="70">「</tspan><tspan class="cls-5" x="420" y="70">嘉義之心願景</tspan><tspan class="cls-7" x="645" y="70">館</tspan><tspan class="cls-8" x="681.93" y="70">」</tspan><tspan x="697.5" y="70">，</tspan><tspan class="cls-5" x="727.5" y="70">由專業的老師與團隊帶</tspan><tspan class="cls-5" x="0" y="140">領我</tspan><tspan x="75" y="140">們，</tspan><tspan class="cls-5" x="135" y="140">重新了解鐵路的歷</tspan><tspan x="435" y="140">史，</tspan><tspan class="cls-5" x="495" y="140">並分組到鐵路的沿線探訪調</tspan><tspan x="945" y="140">查，</tspan><tspan class="cls-5" x="1005" y="140">用各種</tspan><tspan class="cls-5" x="0" y="210">方式記錄下來(拍</tspan><tspan x="280.14" y="210">照、</tspan><tspan class="cls-5" x="340.14" y="210">錄</tspan><tspan x="377.64" y="210">影、</tspan><tspan class="cls-5" x="437.64" y="210">手繪等</tspan><tspan x="550.14" y="210">)，</tspan><tspan class="cls-5" x="590.28" y="210">再帶回願景館發</tspan><tspan x="852.78" y="210">表、</tspan><tspan class="cls-5" x="912.78" y="210">討</tspan><tspan x="950.28" y="210">論。</tspan></text><path class="cls-9" d="M1168.7,991.31l18.35-27.45a3.56,3.56,0,0,0-3-5.53H1147.4a3.56,3.56,0,0,0-3,5.53l18.35,27.45A3.55,3.55,0,0,0,1168.7,991.31Z"/><rect class="cls-10" x="567.96" y="587.86" width="147.41" height="64.4" rx="13.39" transform="matrix(0.99, -0.13, 0.13, 0.99, -74.73, 88.09)"/><path class="cls-11" d="M618.17,631.8c2.81.52,5.77,1.12,7.68,1.62l-2.7,2.52a81.25,81.25,0,0,0-8.68-2.13l1.51-1.73-7.89,1,2.26,1.18a39.11,39.11,0,0,1-8.45,4.47,20.78,20.78,0,0,0-2.62-2,36.94,36.94,0,0,0,7.16-3.48l-3.88.51-1.22-9.37,19.58-2.55,1.22,9.37Zm5.7-11.17L598,624l-.37-2.84,25.83-3.36Zm-20.42-4.72-4.88.63-.33-2.52,4.89-.64-.23-1.76,3.29-.43.23,1.76,6.5-.85-.23-1.76,3.46-.45.23,1.76,4.85-.63.33,2.53-4.85.63.45,3.49-13.25,1.73Zm1.62,11.76,4.66-.61-.18-1.36-4.65.61Zm.45,3.46,4.66-.6-.18-1.36-4.65.6Zm1.23-15.65.16,1.27,6.5-.84-.17-1.28Zm11.06,9.15-4.91.64.18,1.36L618,626Zm.45,3.46-4.91.64.18,1.36,4.91-.64Z"/><path class="cls-11" d="M638.31,614a35.33,35.33,0,0,1-2.68,6.26L637.42,634l-3.4.44-1.29-9.9a25.21,25.21,0,0,1-2.4,2.45,25.24,25.24,0,0,0-2-3,22.42,22.42,0,0,0,6.16-9.46l-6.25.81-.42-3.23,7.69-1c.29-1.31.53-2.58.69-3.85l3.63.4c-.16,1-.38,2-.6,3l13.79-1.8.42,3.24Zm17.18,10.46-6.73.88.46,3.54c.22,1.71.06,2.62-1.1,3.29a15,15,0,0,1-5.07,1.15,12.85,12.85,0,0,0-1.36-3.11c1.43-.1,3.1-.32,3.56-.38s.6-.22.56-.59l-.45-3.46-7.21.94-.41-3.15,7.2-.94-.25-2a19.39,19.39,0,0,0,2.42-2.45l-7.69,1-.4-3,10.79-1.41.68-.29,2.35,1.46a35.4,35.4,0,0,1-4.63,5.19l.14,1.08,6.73-.88Z"/><path class="cls-11" d="M683,621a14.2,14.2,0,0,1-4.53,4.46,80.13,80.13,0,0,0,8.46-.41,12.65,12.65,0,0,0-1.31,2.79,56.47,56.47,0,0,1-11.54-.14,64,64,0,0,1-11.93,3.2,9.23,9.23,0,0,0-1.43-2.55,73.7,73.7,0,0,0,8.43-1.74,18,18,0,0,1-3.68-1.68l.9-.58-4.73.62-.3-2.25,19-2.47.55-.22ZM664.5,607.43l-6.13.8-.32-2.44,6.13-.8-.17-1.33,3.34-.44.18,1.34,2.72-.36.32,2.44-2.72.36.12.93-3.35.44Zm-3.69,9.78,22.76-3,.59,4.57-22.76,3Zm17.59-3-.71-5.42-13.05,1.7.7,5.42-3,.39-.92-7.09,19.13-2.5.92,7.1Zm-14,5.56,3.32-.44-.18-1.36-3.32.43Zm1.27-6,11.83-1.54.2,1.53-11.83,1.54Zm11.72-2.42-11.81,1.54-.2-1.54,11.81-1.53ZM668.91,624a18.07,18.07,0,0,0,4.64,1.1,15.6,15.6,0,0,0,4.1-2.24Zm1.85-5.06,3.35-.44-.18-1.36-3.35.44Zm3.13-12.73-2.47.32-.32-2.44,2.47-.32-.17-1.34,3.38-.43.17,1.33,6.27-.82.32,2.44-6.27.82.12.94-3.38.44Zm3.31,11.89,3.46-.45-.17-1.36-3.47.45Z"/><text class="cls-12" transform="translate(103.71 200.46)">CHAPTER 6</text></svg>